<svg xmlns="http://www.w3.org/2000/svg" width="284.29840087890625" height="284.13006591796875" viewBox="-48.69687271118164 -47.41343307495117 284.29840087890625 284.13006591796875"><title>Neo4j Graph Visualization</title><desc>Created using Neo4j (http://www.neo4j.com/)</desc><g class="layer relationships"><g class="relationship" transform="translate(92.04071035520626 92.29297510149793) rotate(424.55777490965227)"><path class="outline" fill="#A5ABB6" stroke="none" d="M 25 0.5 L 42.69269928289693 0.5 L 42.69269928289693 -0.5 L 25 -0.5 Z M 70.77473053289694 0.5 L 88.46742981579386 0.5 L 88.46742981579386 3.5 L 95.46742981579386 0 L 88.46742981579386 -3.5 L 88.46742981579386 -0.5 L 70.77473053289694 -0.5 Z"/><text text-anchor="middle" pointer-events="none" font-size="8px" fill="#000000" x="56.73371490789693" y="3" font-family="sans-serif">ORTE</text></g><g class="relationship" transform="translate(92.04071035520626 92.29297510149793) rotate(383.9834018613232)"><path class="outline" fill="#A5ABB6" stroke="none" d="M 25 0.5 L 33.15106904323411 0.5 L 33.15106904323411 -0.5 L 25 -0.5 Z M 80.34638154323412 0.5 L 88.49745058646822 0.5 L 88.49745058646822 3.5 L 95.49745058646822 0 L 88.49745058646822 -3.5 L 88.49745058646822 -0.5 L 80.34638154323412 -0.5 Z"/><text text-anchor="middle" pointer-events="none" font-size="8px" fill="#000000" x="56.74872529323411" y="3" font-family="sans-serif">ENTHAELT</text></g><g class="relationship" transform="translate(92.04071035520626 92.29297510149793) rotate(341.59030549780755)"><path class="outline" fill="#A5ABB6" stroke="none" d="M 25 0.5 L 27.4227234602755 0.5 L 27.4227234602755 -0.5 L 25 -0.5 Z M 86.3172547102755 0.5 L 88.739978170551 0.5 L 88.739978170551 3.5 L 95.739978170551 0 L 88.739978170551 -3.5 L 88.739978170551 -0.5 L 86.3172547102755 -0.5 Z"/><text text-anchor="middle" pointer-events="none" font-size="8px" fill="#000000" x="56.8699890852755" y="3" font-family="sans-serif">BUCHBINDER</text></g><g class="relationship" transform="translate(92.04071035520626 92.29297510149793) rotate(295.12731142872474)"><path class="outline" fill="#A5ABB6" stroke="none" d="M 25 0.5 L 42.60438297115186 0.5 L 42.60438297115186 -0.5 L 25 -0.5 Z M 70.68641422115186 0.5 L 88.29079719230371 0.5 L 88.29079719230371 3.5 L 95.29079719230371 0 L 88.29079719230371 -3.5 L 88.29079719230371 -0.5 L 70.68641422115186 -0.5 Z"/><text text-anchor="middle" pointer-events="none" font-size="8px" fill="#000000" x="56.64539859615186" y="3" font-family="sans-serif">ORTE</text></g><g class="relationship" transform="translate(92.04071035520626 92.29297510149793) rotate(247.77238519214058)"><path class="outline" fill="#A5ABB6" stroke="none" d="M 25 0.5 L 32.69914575474027 0.5 L 32.69914575474027 -0.5 L 25 -0.5 Z M 79.89445825474027 0.5 L 87.59360400948054 0.5 L 87.59360400948054 3.5 L 94.59360400948054 0 L 87.59360400948054 -3.5 L 87.59360400948054 -0.5 L 79.89445825474027 -0.5 Z"/><text text-anchor="middle" pointer-events="none" font-size="8px" fill="#000000" x="56.29680200474027" y="3" transform="rotate(180 56.29680200474027 0)" font-family="sans-serif">ENTHAELT</text></g><g class="relationship" transform="translate(92.04071035520626 92.29297510149793) rotate(200.84700542045096)"><path class="outline" fill="#A5ABB6" stroke="none" d="M 25 0.5 L 32.684855384625884 0.5 L 32.684855384625884 -0.5 L 25 -0.5 Z M 79.88016788462588 0.5 L 87.56502326925177 0.5 L 87.56502326925177 3.5 L 94.56502326925177 0 L 87.56502326925177 -3.5 L 87.56502326925177 -0.5 L 79.88016788462588 -0.5 Z"/><text text-anchor="middle" pointer-events="none" font-size="8px" fill="#000000" x="56.282511634625884" y="3" transform="rotate(180 56.282511634625884 0)" font-family="sans-serif">ENTHAELT</text></g><g class="relationship" transform="translate(92.04071035520626 92.29297510149793) rotate(513.4641341351796)"><path class="outline" fill="#A5ABB6" stroke="none" d="M 25 0.5 L 33.014142772204444 0.5 L 33.014142772204444 -0.5 L 25 -0.5 Z M 80.20945527220445 0.5 L 88.22359804440889 0.5 L 88.22359804440889 3.5 L 95.22359804440889 0 L 88.22359804440889 -3.5 L 88.22359804440889 -0.5 L 80.20945527220445 -0.5 Z"/><text text-anchor="middle" pointer-events="none" font-size="8px" fill="#000000" x="56.611799022204444" y="3" transform="rotate(180 56.611799022204444 0)" font-family="sans-serif">ENTHAELT</text></g><g class="relationship" transform="translate(92.04071035520626 92.29297510149793) rotate(466.96636416289834)"><path class="outline" fill="#A5ABB6" stroke="none" d="M 25 0.5 L 33.24031605990092 0.5 L 33.24031605990092 -0.5 L 25 -0.5 Z M 80.43562855990092 0.5 L 88.67594461980184 0.5 L 88.67594461980184 3.5 L 95.67594461980184 0 L 88.67594461980184 -3.5 L 88.67594461980184 -0.5 L 80.43562855990092 -0.5 Z"/><text text-anchor="middle" pointer-events="none" font-size="8px" fill="#000000" x="56.83797230990092" y="3" transform="rotate(180 56.83797230990092 0)" font-family="sans-serif">ENTHAELT</text></g></g><g class="layer nodes"><g class="node" transform="translate(92.04071035520626,92.29297510149793)"><circle class="outline" cx="0" cy="0" r="25" fill="#F79767" stroke="#f36924" stroke-width="2px"/><text text-anchor="middle" pointer-events="none" font-family="sans-serif" dy="1.5625" font-size="25" fill="#FFFFFF"/><text text-anchor="middle" pointer-events="none" y="5" font-size="10px" fill="#FFFFFF" font-family="sans-serif"> S 67</text></g><g class="node" transform="translate(143.79360795588303,201.07734546947444)"><circle class="outline" cx="0" cy="0" r="25" fill="#F16667" stroke="#eb2728" stroke-width="2px"/><text text-anchor="middle" pointer-events="none" font-family="sans-serif" dy="1.5625" font-size="25" fill="#FFFFFF"/><text text-anchor="middle" pointer-events="none" y="5" font-size="10px" fill="#FFFFFF" font-family="sans-serif"> Trier</text></g><g class="node" transform="translate(202.13480240103965,141.27181231147992)"><circle class="outline" cx="0" cy="0" r="25" fill="#D9C8AE" stroke="#c0a378" stroke-width="2px"/><text text-anchor="middle" pointer-events="none" font-family="sans-serif" dy="1.5625" font-size="25" fill="#604A0E"/><text text-anchor="middle" pointer-events="none" font-family="sans-serif" dy="1.5625" font-size="25" fill="#604A0E"/><text text-anchor="middle" pointer-events="none" font-family="sans-serif" dy="1.5625" font-size="25" fill="#604A0E"/><text text-anchor="middle" pointer-events="none" y="-5" font-size="10px" fill="#604A0E" font-family="sans-serif"> Faszikel</text><text text-anchor="middle" pointer-events="none" y="5" font-size="10px" fill="#604A0E" font-family="sans-serif"> &amp;</text><text text-anchor="middle" pointer-events="none" y="15" font-size="10px" fill="#604A0E" font-family="sans-serif"> Hands…</text></g><g class="node" transform="translate(206.60152915166822,54.162132922110665)"><circle class="outline" cx="0" cy="0" r="25" fill="#57C7E3" stroke="#23b3d7" stroke-width="2px"/><text text-anchor="middle" pointer-events="none" font-family="sans-serif" dy="1.5625" font-size="25" fill="#FFFFFF"/><text text-anchor="middle" pointer-events="none" y="5" font-size="10px" fill="#FFFFFF" font-family="sans-serif"> Buchbin…</text></g><g class="node" transform="translate(143.11991618330302,-16.61428187034426)"><circle class="outline" cx="0" cy="0" r="25" fill="#F16667" stroke="#eb2728" stroke-width="2px"/><text text-anchor="middle" pointer-events="none" font-family="sans-serif" dy="1.5625" font-size="25" fill="#FFFFFF"/><text text-anchor="middle" pointer-events="none" y="5" font-size="10px" fill="#FFFFFF" font-family="sans-serif"> Köln</text></g><g class="node" transform="translate(46.80000657301916,-18.41343321016596)"><circle class="outline" cx="0" cy="0" r="25" fill="#D9C8AE" stroke="#c0a378" stroke-width="2px"/><text text-anchor="middle" pointer-events="none" font-family="sans-serif" dy="1.5625" font-size="25" fill="#604A0E"/><text text-anchor="middle" pointer-events="none" font-family="sans-serif" dy="1.5625" font-size="25" fill="#604A0E"/><text text-anchor="middle" pointer-events="none" font-family="sans-serif" dy="1.5625" font-size="25" fill="#604A0E"/><text text-anchor="middle" pointer-events="none" y="-5" font-size="10px" fill="#604A0E" font-family="sans-serif"> Faszikel</text><text text-anchor="middle" pointer-events="none" y="5" font-size="10px" fill="#604A0E" font-family="sans-serif"> &amp;</text><text text-anchor="middle" pointer-events="none" y="15" font-size="10px" fill="#604A0E" font-family="sans-serif"> Hands…</text></g><g class="node" transform="translate(-19.696872964068742,49.742919128035396)"><circle class="outline" cx="0" cy="0" r="25" fill="#D9C8AE" stroke="#c0a378" stroke-width="2px"/><text text-anchor="middle" pointer-events="none" font-family="sans-serif" dy="1.5625" font-size="25" fill="#604A0E"/><text text-anchor="middle" pointer-events="none" font-family="sans-serif" dy="1.5625" font-size="25" fill="#604A0E"/><text text-anchor="middle" pointer-events="none" font-family="sans-serif" dy="1.5625" font-size="25" fill="#604A0E"/><text text-anchor="middle" pointer-events="none" y="-5" font-size="10px" fill="#604A0E" font-family="sans-serif"> Faszikel</text><text text-anchor="middle" pointer-events="none" y="5" font-size="10px" fill="#604A0E" font-family="sans-serif"> &amp;</text><text text-anchor="middle" pointer-events="none" y="15" font-size="10px" fill="#604A0E" font-family="sans-serif"> Hands…</text></g><g class="node" transform="translate(-15.51791790810787,146.0038214256604)"><circle class="outline" cx="0" cy="0" r="25" fill="#D9C8AE" stroke="#c0a378" stroke-width="2px"/><text text-anchor="middle" pointer-events="none" font-family="sans-serif" dy="1.5625" font-size="25" fill="#604A0E"/><text text-anchor="middle" pointer-events="none" y="5" font-size="10px" fill="#604A0E" font-family="sans-serif"> Einband</text></g><g class="node" transform="translate(56.826232807244494,207.7166476340663)"><circle class="outline" cx="0" cy="0" r="25" fill="#D9C8AE" stroke="#c0a378" stroke-width="2px"/><text text-anchor="middle" pointer-events="none" font-family="sans-serif" dy="1.5625" font-size="25" fill="#604A0E"/><text text-anchor="middle" pointer-events="none" font-family="sans-serif" dy="1.5625" font-size="25" fill="#604A0E"/><text text-anchor="middle" pointer-events="none" font-family="sans-serif" dy="1.5625" font-size="25" fill="#604A0E"/><text text-anchor="middle" pointer-events="none" y="-5" font-size="10px" fill="#604A0E" font-family="sans-serif"> Faszikel</text><text text-anchor="middle" pointer-events="none" y="5" font-size="10px" fill="#604A0E" font-family="sans-serif"> &amp;</text><text text-anchor="middle" pointer-events="none" y="15" font-size="10px" fill="#604A0E" font-family="sans-serif"> Inkun…</text></g></g></svg>