<svg xmlns="http://www.w3.org/2000/svg" width="585.4693603515625" height="536.268798828125" viewBox="-271.3218078613281 -149.701171875 585.4693603515625 536.268798828125"><title>Neo4j Graph Visualization</title><desc>Created using Neo4j (http://www.neo4j.com/)</desc><g class="layer relationships"><g class="relationship" transform="translate(-50.40917441014929 122.13298631086717) rotate(292.8563007749513)"><path class="outline" fill="#A5ABB6" stroke="none" d="M 25 0.5 L 37.342261488670914 0.5 L 37.342261488670914 -0.5 L 25 -0.5 Z M 84.53757398867091 0.5 L 96.87983547734183 0.5 L 96.87983547734183 3.5 L 103.87983547734183 0 L 96.87983547734183 -3.5 L 96.87983547734183 -0.5 L 84.53757398867091 -0.5 Z"/><text text-anchor="middle" pointer-events="none" font-size="8px" fill="#000000" x="60.939917738670914" y="3" font-family="sans-serif">ENTHAELT</text></g><g class="relationship" transform="translate(-0.34950720203274044 3.372547983622334) rotate(288.6030267078993)"><path class="outline" fill="#A5ABB6" stroke="none" d="M 25 0.5 L 38.35921948407692 0.5 L 38.35921948407692 -0.5 L 25 -0.5 Z M 85.55453198407692 0.5 L 98.91375146815383 0.5 L 98.91375146815383 3.5 L 105.91375146815383 0 L 98.91375146815383 -3.5 L 98.91375146815383 -0.5 L 85.55453198407692 -0.5 Z"/><text text-anchor="middle" pointer-events="none" font-size="8px" fill="#000000" x="61.95687573407692" y="3" font-family="sans-serif">ENTHAELT</text></g><g class="relationship" transform="translate(-50.40917441014929 122.13298631086717) rotate(245.76139858189896)"><path class="outline" fill="#A5ABB6" stroke="none" d="M 25 0.5 L 37.29097316742869 0.5 L 37.29097316742869 -0.5 L 25 -0.5 Z M 84.48628566742869 0.5 L 96.77725883485738 0.5 L 96.77725883485738 3.5 L 103.77725883485738 0 L 96.77725883485738 -3.5 L 96.77725883485738 -0.5 L 84.48628566742869 -0.5 Z"/><text text-anchor="middle" pointer-events="none" font-size="8px" fill="#000000" x="60.88862941742869" y="3" transform="rotate(180 60.88862941742869 0)" font-family="sans-serif">ENTHAELT</text></g><g class="relationship" transform="translate(-103.277062643823 4.708249620799874) rotate(266.67644375940586)"><path class="outline" fill="#A5ABB6" stroke="none" d="M 25 0.5 L 35.1363870612336 0.5 L 35.1363870612336 -0.5 L 25 -0.5 Z M 82.33169956123359 0.5 L 92.4680866224672 0.5 L 92.4680866224672 3.5 L 99.4680866224672 0 L 92.4680866224672 -3.5 L 92.4680866224672 -0.5 L 82.33169956123359 -0.5 Z"/><text text-anchor="middle" pointer-events="none" font-size="8px" fill="#000000" x="58.7340433112336" y="3" transform="rotate(180 58.7340433112336 0)" font-family="sans-serif">ENTHAELT</text></g><g class="relationship" transform="translate(-50.40917441014929 122.13298631086717) rotate(511.9781052603093)"><path class="outline" fill="#A5ABB6" stroke="none" d="M 25 0.5 L 29.45940746467319 0.5 L 29.45940746467319 -0.5 L 25 -0.5 Z M 76.65471996467319 0.5 L 81.11412742934638 0.5 L 81.11412742934638 3.5 L 88.11412742934638 0 L 81.11412742934638 -3.5 L 81.11412742934638 -0.5 L 76.65471996467319 -0.5 Z"/><text text-anchor="middle" pointer-events="none" font-size="8px" fill="#000000" x="53.05706371467319" y="3" transform="rotate(180 53.05706371467319 0)" font-family="sans-serif">ENTHAELT</text></g><g class="relationship" transform="translate(-150.26272078891884 175.2750139320008) rotate(223.0349641662093)"><path class="outline" fill="#A5ABB6" stroke="none" d="M 25 0.5 L 30.490461468326316 0.5 L 30.490461468326316 -0.5 L 25 -0.5 Z M 77.68577396832632 0.5 L 83.17623543665263 0.5 L 83.17623543665263 3.5 L 90.17623543665263 0 L 83.17623543665263 -3.5 L 83.17623543665263 -0.5 L 77.68577396832632 -0.5 Z"/><text text-anchor="middle" pointer-events="none" font-size="8px" fill="#000000" x="54.088117718326316" y="3" transform="rotate(180 54.088117718326316 0)" font-family="sans-serif">ENTHAELT</text></g><g class="relationship" transform="translate(-150.26272078891884 175.2750139320008) rotate(505.891816454259)"><path class="outline" fill="#A5ABB6" stroke="none" d="M 25 0.5 L 28.494909565615856 0.5 L 28.494909565615856 -0.5 L 25 -0.5 Z M 75.69022206561586 0.5 L 79.18513163123171 0.5 L 79.18513163123171 3.5 L 86.18513163123171 0 L 79.18513163123171 -3.5 L 79.18513163123171 -0.5 L 75.69022206561586 -0.5 Z"/><text text-anchor="middle" pointer-events="none" font-size="8px" fill="#000000" x="52.092565815615856" y="3" transform="rotate(180 52.092565815615856 0)" font-family="sans-serif">ENTHAELT</text></g><g class="relationship" transform="translate(-150.26272078891884 175.2750139320008) rotate(444.9676485730194)"><path class="outline" fill="#A5ABB6" stroke="none" d="M 25 0.5 L 32.03186690088558 0.5 L 32.03186690088558 -0.5 L 25 -0.5 Z M 79.22717940088557 0.5 L 86.25904630177116 0.5 L 86.25904630177116 3.5 L 93.25904630177116 0 L 86.25904630177116 -3.5 L 86.25904630177116 -0.5 L 79.22717940088557 -0.5 Z"/><text text-anchor="middle" pointer-events="none" font-size="8px" fill="#000000" x="55.62952315088558" y="3" font-family="sans-serif">ENTHAELT</text></g><g class="relationship" transform="translate(-50.40917441014929 122.13298631086717) rotate(427.7240480630446)"><path class="outline" fill="#A5ABB6" stroke="none" d="M 25 0.5 L 36.304743305378786 0.5 L 36.304743305378786 -0.5 L 25 -0.5 Z M 83.50005580537879 0.5 L 94.80479911075757 0.5 L 94.80479911075757 3.5 L 101.80479911075757 0 L 94.80479911075757 -3.5 L 94.80479911075757 -0.5 L 83.50005580537879 -0.5 Z"/><text text-anchor="middle" pointer-events="none" font-size="8px" fill="#000000" x="59.902399555378786" y="3" font-family="sans-serif">ENTHAELT</text></g><g class="relationship" transform="translate(-2.341558301391802 239.47420395897538) rotate(428.28240925698077)"><path class="outline" fill="#A5ABB6" stroke="none" d="M 25 0.5 L 36.4604781634996 0.5 L 36.4604781634996 -0.5 L 25 -0.5 Z M 83.6557906634996 0.5 L 95.1162688269992 0.5 L 95.1162688269992 3.5 L 102.1162688269992 0 L 95.1162688269992 -3.5 L 95.1162688269992 -0.5 L 83.6557906634996 -0.5 Z"/><text text-anchor="middle" pointer-events="none" font-size="8px" fill="#000000" x="60.0581344134996" y="3" font-family="sans-serif">ENTHAELT</text></g><g class="relationship" transform="translate(-50.40917441014929 122.13298631086717) rotate(355.01778910475605)"><path class="outline" fill="#A5ABB6" stroke="none" d="M 25 0.5 L 75.49556551845602 0.5 L 75.49556551845602 -0.5 L 25 -0.5 Z M 122.69087801845602 0.5 L 173.18644353691204 0.5 L 173.18644353691204 3.5 L 180.18644353691204 0 L 173.18644353691204 -3.5 L 173.18644353691204 -0.5 L 122.69087801845602 -0.5 Z"/><text text-anchor="middle" pointer-events="none" font-size="8px" fill="#000000" x="99.09322176845602" y="3" font-family="sans-serif">ENTHAELT</text></g><g class="relationship" transform="translate(154.00201525052563 104.31327383187411) rotate(455.9651512241988)"><path class="outline" fill="#A5ABB6" stroke="none" d="M 25 0.5 L 26.63896855288482 0.5 L 26.63896855288482 -0.5 L 25 -0.5 Z M 73.83428105288482 0.5 L 75.47324960576964 0.5 L 75.47324960576964 3.5 L 82.47324960576964 0 L 75.47324960576964 -3.5 L 75.47324960576964 -0.5 L 73.83428105288482 -0.5 Z"/><text text-anchor="middle" pointer-events="none" font-size="8px" fill="#000000" x="50.23662480288482" y="3" transform="rotate(180 50.23662480288482 0)" font-family="sans-serif">ENTHAELT</text></g><g class="relationship" transform="translate(154.00201525052563 104.31327383187411) rotate(394.07196824983146)"><path class="outline" fill="#A5ABB6" stroke="none" d="M 25 0.5 L 36.78472320049695 0.5 L 36.78472320049695 -0.5 L 25 -0.5 Z M 83.98003570049696 0.5 L 95.7647589009939 0.5 L 95.7647589009939 3.5 L 102.7647589009939 0 L 95.7647589009939 -3.5 L 95.7647589009939 -0.5 L 83.98003570049696 -0.5 Z"/><text text-anchor="middle" pointer-events="none" font-size="8px" fill="#000000" x="60.38237945049695" y="3" font-family="sans-serif">ENTHAELT</text></g><g class="relationship" transform="translate(154.00201525052563 104.31327383187411) rotate(363.4789282956297)"><path class="outline" fill="#A5ABB6" stroke="none" d="M 25 0.5 L 38.59617878221374 0.5 L 38.59617878221374 -0.5 L 25 -0.5 Z M 85.79149128221374 0.5 L 99.38767006442748 0.5 L 99.38767006442748 3.5 L 106.38767006442748 0 L 99.38767006442748 -3.5 L 99.38767006442748 -0.5 L 85.79149128221374 -0.5 Z"/><text text-anchor="middle" pointer-events="none" font-size="8px" fill="#000000" x="62.19383503221374" y="3" font-family="sans-serif">ENTHAELT</text></g><g class="relationship" transform="translate(154.00201525052563 104.31327383187411) rotate(432.861702449503)"><path class="outline" fill="#A5ABB6" stroke="none" d="M 25 0.5 L 51.3390924965951 0.5 L 51.3390924965951 -0.5 L 25 -0.5 Z M 98.5344049965951 0.5 L 124.8734974931902 0.5 L 124.8734974931902 3.5 L 131.8734974931902 0 L 124.8734974931902 -3.5 L 124.8734974931902 -0.5 L 98.5344049965951 -0.5 Z"/><text text-anchor="middle" pointer-events="none" font-size="8px" fill="#000000" x="74.9367487465951" y="3" font-family="sans-serif">ENTHAELT</text></g><g class="relationship" transform="translate(154.00201525052563 104.31327383187411) rotate(333.78633703683)"><path class="outline" fill="#A5ABB6" stroke="none" d="M 25 0.5 L 38.442100597884334 0.5 L 38.442100597884334 -0.5 L 25 -0.5 Z M 85.63741309788433 0.5 L 99.07951369576867 0.5 L 99.07951369576867 3.5 L 106.07951369576867 0 L 99.07951369576867 -3.5 L 99.07951369576867 -0.5 L 85.63741309788433 -0.5 Z"/><text text-anchor="middle" pointer-events="none" font-size="8px" fill="#000000" x="62.039756847884334" y="3" font-family="sans-serif">ENTHAELT</text></g><g class="relationship" transform="translate(154.00201525052563 104.31327383187411) rotate(303.4643842286864)"><path class="outline" fill="#A5ABB6" stroke="none" d="M 25 0.5 L 38.57164743499645 0.5 L 38.57164743499645 -0.5 L 25 -0.5 Z M 85.76695993499645 0.5 L 99.3386073699929 0.5 L 99.3386073699929 3.5 L 106.3386073699929 0 L 99.3386073699929 -3.5 L 99.3386073699929 -0.5 L 85.76695993499645 -0.5 Z"/><text text-anchor="middle" pointer-events="none" font-size="8px" fill="#000000" x="62.16930368499645" y="3" font-family="sans-serif">ENTHAELT</text></g><g class="relationship" transform="translate(154.00201525052563 104.31327383187411) rotate(269.60028339116565)"><path class="outline" fill="#A5ABB6" stroke="none" d="M 25 0.5 L 32.74261676813076 0.5 L 32.74261676813076 -0.5 L 25 -0.5 Z M 79.93792926813076 0.5 L 87.68054603626152 0.5 L 87.68054603626152 3.5 L 94.68054603626152 0 L 87.68054603626152 -3.5 L 87.68054603626152 -0.5 L 79.93792926813076 -0.5 Z"/><text text-anchor="middle" pointer-events="none" font-size="8px" fill="#000000" x="56.34027301813076" y="3" transform="rotate(180 56.34027301813076 0)" font-family="sans-serif">ENTHAELT</text></g></g><g class="layer nodes"><g class="node" transform="translate(-50.40917441014929,122.13298631086717)"><circle class="outline" cx="0" cy="0" r="25" fill="#F79767" stroke="#f36924" stroke-width="2px"/><text text-anchor="middle" pointer-events="none" font-family="sans-serif" dy="1.5625" font-size="25" fill="#FFFFFF"/><text text-anchor="middle" pointer-events="none" y="5" font-size="10px" fill="#FFFFFF" font-family="sans-serif"> S 67</text></g><g class="node" transform="translate(-0.34950720203274044,3.372547983622334)"><circle class="outline" cx="0" cy="0" r="25" fill="#D9C8AE" stroke="#c0a378" stroke-width="2px"/><text text-anchor="middle" pointer-events="none" font-family="sans-serif" dy="1.5625" font-size="25" fill="#604A0E"/><text text-anchor="middle" pointer-events="none" font-family="sans-serif" dy="1.5625" font-size="25" fill="#604A0E"/><text text-anchor="middle" pointer-events="none" font-family="sans-serif" dy="1.5625" font-size="25" fill="#604A0E"/><text text-anchor="middle" pointer-events="none" y="-5" font-size="10px" fill="#604A0E" font-family="sans-serif"> Faszikel</text><text text-anchor="middle" pointer-events="none" y="5" font-size="10px" fill="#604A0E" font-family="sans-serif"> &amp;</text><text text-anchor="middle" pointer-events="none" y="15" font-size="10px" fill="#604A0E" font-family="sans-serif"> Inkun…</text></g><g class="node" transform="translate(41.41320692232736,-120.70116410895803)"><circle class="outline" cx="0" cy="0" r="25" fill="#D9C8AE" stroke="#c0a378" stroke-width="2px"/><text text-anchor="middle" pointer-events="none" font-family="sans-serif" dy="1.5625" font-size="25" fill="#604A0E"/><text text-anchor="middle" pointer-events="none" y="5" font-size="10px" fill="#604A0E" font-family="sans-serif"> Text</text></g><g class="node" transform="translate(-103.277062643823,4.708249620799874)"><circle class="outline" cx="0" cy="0" r="25" fill="#D9C8AE" stroke="#c0a378" stroke-width="2px"/><text text-anchor="middle" pointer-events="none" font-family="sans-serif" dy="1.5625" font-size="25" fill="#604A0E"/><text text-anchor="middle" pointer-events="none" y="5" font-size="10px" fill="#604A0E" font-family="sans-serif"> Einband</text></g><g class="node" transform="translate(-110.49303453353583,-119.55048985914524)"><circle class="outline" cx="0" cy="0" r="25" fill="#D9C8AE" stroke="#c0a378" stroke-width="2px"/><text text-anchor="middle" pointer-events="none" font-family="sans-serif" dy="1.5625" font-size="25" fill="#604A0E"/><text text-anchor="middle" pointer-events="none" y="5" font-size="10px" fill="#604A0E" font-family="sans-serif"> Handsc…</text></g><g class="node" transform="translate(-150.26272078891884,175.2750139320008)"><circle class="outline" cx="0" cy="0" r="25" fill="#D9C8AE" stroke="#c0a378" stroke-width="2px"/><text text-anchor="middle" pointer-events="none" font-family="sans-serif" dy="1.5625" font-size="25" fill="#604A0E"/><text text-anchor="middle" pointer-events="none" font-family="sans-serif" dy="1.5625" font-size="25" fill="#604A0E"/><text text-anchor="middle" pointer-events="none" font-family="sans-serif" dy="1.5625" font-size="25" fill="#604A0E"/><text text-anchor="middle" pointer-events="none" y="-5" font-size="10px" fill="#604A0E" font-family="sans-serif"> Faszikel</text><text text-anchor="middle" pointer-events="none" y="5" font-size="10px" fill="#604A0E" font-family="sans-serif"> &amp;</text><text text-anchor="middle" pointer-events="none" y="15" font-size="10px" fill="#604A0E" font-family="sans-serif"> Hands…</text></g><g class="node" transform="translate(-234.44933689273034,96.67362158842522)"><circle class="outline" cx="0" cy="0" r="25" fill="#D9C8AE" stroke="#c0a378" stroke-width="2px"/><text text-anchor="middle" pointer-events="none" font-family="sans-serif" dy="1.5625" font-size="25" fill="#604A0E"/><text text-anchor="middle" pointer-events="none" y="5" font-size="10px" fill="#604A0E" font-family="sans-serif"> Text</text></g><g class="node" transform="translate(-242.32181389669265,237.6228837595142)"><circle class="outline" cx="0" cy="0" r="25" fill="#D9C8AE" stroke="#c0a378" stroke-width="2px"/><text text-anchor="middle" pointer-events="none" font-family="sans-serif" dy="1.5625" font-size="25" fill="#604A0E"/><text text-anchor="middle" pointer-events="none" y="5" font-size="10px" fill="#604A0E" font-family="sans-serif"> Text</text></g><g class="node" transform="translate(-139.8892478523353,293.0782103718191)"><circle class="outline" cx="0" cy="0" r="25" fill="#D9C8AE" stroke="#c0a378" stroke-width="2px"/><text text-anchor="middle" pointer-events="none" font-family="sans-serif" dy="1.5625" font-size="25" fill="#604A0E"/><text text-anchor="middle" pointer-events="none" y="5" font-size="10px" fill="#604A0E" font-family="sans-serif"> Text</text></g><g class="node" transform="translate(-2.341558301391802,239.47420395897538)"><circle class="outline" cx="0" cy="0" r="25" fill="#D9C8AE" stroke="#c0a378" stroke-width="2px"/><text text-anchor="middle" pointer-events="none" font-family="sans-serif" dy="1.5625" font-size="25" fill="#604A0E"/><text text-anchor="middle" pointer-events="none" font-family="sans-serif" dy="1.5625" font-size="25" fill="#604A0E"/><text text-anchor="middle" pointer-events="none" font-family="sans-serif" dy="1.5625" font-size="25" fill="#604A0E"/><text text-anchor="middle" pointer-events="none" y="-5" font-size="10px" fill="#604A0E" font-family="sans-serif"> Faszikel</text><text text-anchor="middle" pointer-events="none" y="5" font-size="10px" fill="#604A0E" font-family="sans-serif"> &amp;</text><text text-anchor="middle" pointer-events="none" y="15" font-size="10px" fill="#604A0E" font-family="sans-serif"> Hands…</text></g><g class="node" transform="translate(44.69552872825181,357.5676341075813)"><circle class="outline" cx="0" cy="0" r="25" fill="#D9C8AE" stroke="#c0a378" stroke-width="2px"/><text text-anchor="middle" pointer-events="none" font-family="sans-serif" dy="1.5625" font-size="25" fill="#604A0E"/><text text-anchor="middle" pointer-events="none" y="5" font-size="10px" fill="#604A0E" font-family="sans-serif"> Text</text></g><g class="node" transform="translate(154.00201525052563,104.31327383187411)"><circle class="outline" cx="0" cy="0" r="25" fill="#D9C8AE" stroke="#c0a378" stroke-width="2px"/><text text-anchor="middle" pointer-events="none" font-family="sans-serif" dy="1.5625" font-size="25" fill="#604A0E"/><text text-anchor="middle" pointer-events="none" font-family="sans-serif" dy="1.5625" font-size="25" fill="#604A0E"/><text text-anchor="middle" pointer-events="none" font-family="sans-serif" dy="1.5625" font-size="25" fill="#604A0E"/><text text-anchor="middle" pointer-events="none" y="-5" font-size="10px" fill="#604A0E" font-family="sans-serif"> Faszikel</text><text text-anchor="middle" pointer-events="none" y="5" font-size="10px" fill="#604A0E" font-family="sans-serif"> &amp;</text><text text-anchor="middle" pointer-events="none" y="15" font-size="10px" fill="#604A0E" font-family="sans-serif"> Hands…</text></g><g class="node" transform="translate(142.83301361959155,211.20458677821347)"><circle class="outline" cx="0" cy="0" r="25" fill="#D9C8AE" stroke="#c0a378" stroke-width="2px"/><text text-anchor="middle" pointer-events="none" font-family="sans-serif" dy="1.5625" font-size="25" fill="#604A0E"/><text text-anchor="middle" pointer-events="none" y="5" font-size="10px" fill="#604A0E" font-family="sans-serif"> Text</text></g><g class="node" transform="translate(259.8339762647772,175.89141047224098)"><circle class="outline" cx="0" cy="0" r="25" fill="#D9C8AE" stroke="#c0a378" stroke-width="2px"/><text text-anchor="middle" pointer-events="none" font-family="sans-serif" dy="1.5625" font-size="25" fill="#604A0E"/><text text-anchor="middle" pointer-events="none" y="5" font-size="10px" fill="#604A0E" font-family="sans-serif"> Text</text></g><g class="node" transform="translate(285.14756185394936,112.28606826344365)"><circle class="outline" cx="0" cy="0" r="25" fill="#D9C8AE" stroke="#c0a378" stroke-width="2px"/><text text-anchor="middle" pointer-events="none" font-family="sans-serif" dy="1.5625" font-size="25" fill="#604A0E"/><text text-anchor="middle" pointer-events="none" y="5" font-size="10px" fill="#604A0E" font-family="sans-serif"> Text</text></g><g class="node" transform="translate(200.2293608691296,254.2210012271091)"><circle class="outline" cx="0" cy="0" r="25" fill="#D9C8AE" stroke="#c0a378" stroke-width="2px"/><text text-anchor="middle" pointer-events="none" font-family="sans-serif" dy="1.5625" font-size="25" fill="#604A0E"/><text text-anchor="middle" pointer-events="none" y="5" font-size="10px" fill="#604A0E" font-family="sans-serif"> Text</text></g><g class="node" transform="translate(271.6004022033633,46.412856762479244)"><circle class="outline" cx="0" cy="0" r="25" fill="#D9C8AE" stroke="#c0a378" stroke-width="2px"/><text text-anchor="middle" pointer-events="none" font-family="sans-serif" dy="1.5625" font-size="25" fill="#604A0E"/><text text-anchor="middle" pointer-events="none" y="5" font-size="10px" fill="#604A0E" font-family="sans-serif"> Text</text></g><g class="node" transform="translate(226.4245563863955,-5.2531686645051945)"><circle class="outline" cx="0" cy="0" r="25" fill="#D9C8AE" stroke="#c0a378" stroke-width="2px"/><text text-anchor="middle" pointer-events="none" font-family="sans-serif" dy="1.5625" font-size="25" fill="#604A0E"/><text text-anchor="middle" pointer-events="none" y="5" font-size="10px" fill="#604A0E" font-family="sans-serif"> Text</text></g><g class="node" transform="translate(153.16708614464432,-15.364359805016717)"><circle class="outline" cx="0" cy="0" r="25" fill="#D9C8AE" stroke="#c0a378" stroke-width="2px"/><text text-anchor="middle" pointer-events="none" font-family="sans-serif" dy="1.5625" font-size="25" fill="#604A0E"/><text text-anchor="middle" pointer-events="none" y="5" font-size="10px" fill="#604A0E" font-family="sans-serif"> Text</text></g></g></svg>