<svg xmlns="http://www.w3.org/2000/svg" width="1380.2130126953125" height="1388.226806640625" viewBox="-596.3275146484375 -597.5363159179688 1380.2130126953125 1388.226806640625"><title>Neo4j Graph Visualization</title><desc>Created using Neo4j (http://www.neo4j.com/)</desc><g class="layer relationships"><g class="relationship" transform="translate(106.86485061246934 122.81815296237632) rotate(437.0035063174523)"><path class="outline" fill="#A5ABB6" stroke="none" d="M 25 0.5 L 45.2547623633117 0.5 L 45.2547623633117 -0.5 L 25 -0.5 Z M 92.4500748633117 0.5 L 112.7048372266234 0.5 L 112.7048372266234 3.5 L 119.7048372266234 0 L 112.7048372266234 -3.5 L 112.7048372266234 -0.5 L 92.4500748633117 -0.5 Z"/><text text-anchor="middle" pointer-events="none" font-size="8px" fill="#000000" x="68.8524186133117" y="3" font-family="sans-serif">ENTHAELT</text></g><g class="relationship" transform="translate(139.40772774875663 263.8162063690673) rotate(437.6193888637156)"><path class="outline" fill="#A5ABB6" stroke="none" d="M 25 0.5 L 45.57845752088798 0.5 L 45.57845752088798 -0.5 L 25 -0.5 Z M 92.77377002088798 0.5 L 113.35222754177596 0.5 L 113.35222754177596 3.5 L 120.35222754177596 0 L 113.35222754177596 -3.5 L 113.35222754177596 -0.5 L 92.77377002088798 -0.5 Z"/><text text-anchor="middle" pointer-events="none" font-size="8px" fill="#000000" x="69.17611377088798" y="3" font-family="sans-serif">ENTHAELT</text></g><g class="relationship" transform="translate(170.5719443991136 405.7882516875941) rotate(440.37923151119776)"><path class="outline" fill="#A5ABB6" stroke="none" d="M 25 0.5 L 34.05931071829781 0.5 L 34.05931071829781 -0.5 L 25 -0.5 Z M 81.25462321829781 0.5 L 90.31393393659562 0.5 L 90.31393393659562 3.5 L 97.31393393659562 0 L 90.31393393659562 -3.5 L 90.31393393659562 -0.5 L 81.25462321829781 -0.5 Z"/><text text-anchor="middle" pointer-events="none" font-size="8px" fill="#000000" x="57.65696696829781" y="3" font-family="sans-serif">ENTHAELT</text></g><g class="relationship" transform="translate(191.01379981705642 526.3819040168846) rotate(452.0905044903703)"><path class="outline" fill="#A5ABB6" stroke="none" d="M 25 0.5 L 29.516613614906113 0.5 L 29.516613614906113 -0.5 L 25 -0.5 Z M 76.7119261149061 0.5 L 81.22853972981223 0.5 L 81.22853972981223 3.5 L 88.22853972981223 0 L 81.22853972981223 -3.5 L 81.22853972981223 -0.5 L 76.7119261149061 -0.5 Z"/><text text-anchor="middle" pointer-events="none" font-size="8px" fill="#000000" x="53.11426986490611" y="3" transform="rotate(180 53.11426986490611 0)" font-family="sans-serif">ENTHAELT</text></g><g class="relationship" transform="translate(186.88343877296853 639.5350848249872) rotate(420.1436886306715)"><path class="outline" fill="#A5ABB6" stroke="none" d="M 25 0.5 L 27.38760884137995 0.5 L 27.38760884137995 -0.5 L 25 -0.5 Z M 74.58292134137994 0.5 L 76.9705301827599 0.5 L 76.9705301827599 3.5 L 83.9705301827599 0 L 76.9705301827599 -3.5 L 76.9705301827599 -0.5 L 74.58292134137994 -0.5 Z"/><text text-anchor="middle" pointer-events="none" font-size="8px" fill="#000000" x="50.98526509137995" y="3" font-family="sans-serif">ENTHAELT</text></g><g class="relationship" transform="translate(241.13186481547018 734.0426756324086) rotate(356.69894939764083)"><path class="outline" fill="#A5ABB6" stroke="none" d="M 25 0.5 L 27.474633620555494 0.5 L 27.474633620555494 -0.5 L 25 -0.5 Z M 74.6699461205555 0.5 L 77.14457974111099 0.5 L 77.14457974111099 3.5 L 84.14457974111099 0 L 77.14457974111099 -3.5 L 77.14457974111099 -0.5 L 74.6699461205555 -0.5 Z"/><text text-anchor="middle" pointer-events="none" font-size="8px" fill="#000000" x="51.072289870555494" y="3" font-family="sans-serif">ENTHAELT</text></g><g class="relationship" transform="translate(350.09534760506375 727.7578760949787) rotate(334.3972938940876)"><path class="outline" fill="#A5ABB6" stroke="none" d="M 25 0.5 L 27.300619541896104 0.5 L 27.300619541896104 -0.5 L 25 -0.5 Z M 74.49593204189611 0.5 L 76.79655158379221 0.5 L 76.79655158379221 3.5 L 83.79655158379221 0 L 76.79655158379221 -3.5 L 76.79655158379221 -0.5 L 74.49593204189611 -0.5 Z"/><text text-anchor="middle" pointer-events="none" font-size="8px" fill="#000000" x="50.898275791896104" y="3" font-family="sans-serif">ENTHAELT</text></g><g class="relationship" transform="translate(106.86485061246934 122.81815296237632) rotate(395.5788427535323)"><path class="outline" fill="#A5ABB6" stroke="none" d="M 25 0.5 L 46.51820132207533 0.5 L 46.51820132207533 -0.5 L 25 -0.5 Z M 93.71351382207533 0.5 L 115.23171514415066 0.5 L 115.23171514415066 3.5 L 122.23171514415066 0 L 115.23171514415066 -3.5 L 115.23171514415066 -0.5 L 93.71351382207533 -0.5 Z"/><text text-anchor="middle" pointer-events="none" font-size="8px" fill="#000000" x="70.11585757207533" y="3" font-family="sans-serif">ENTHAELT</text></g><g class="relationship" transform="translate(226.61071054667337 208.48090433604114) rotate(394.27957873470183)"><path class="outline" fill="#A5ABB6" stroke="none" d="M 25 0.5 L 46.036420516820385 0.5 L 46.036420516820385 -0.5 L 25 -0.5 Z M 93.23173301682039 0.5 L 114.26815353364077 0.5 L 114.26815353364077 3.5 L 121.26815353364077 0 L 114.26815353364077 -3.5 L 114.26815353364077 -0.5 L 93.23173301682039 -0.5 Z"/><text text-anchor="middle" pointer-events="none" font-size="8px" fill="#000000" x="69.63407676682039" y="3" font-family="sans-serif">ENTHAELT</text></g><g class="relationship" transform="translate(347.4719531501228 290.8637470552072) rotate(396.54431288343676)"><path class="outline" fill="#A5ABB6" stroke="none" d="M 25 0.5 L 34.81176856102634 0.5 L 34.81176856102634 -0.5 L 25 -0.5 Z M 82.00708106102634 0.5 L 91.81884962205268 0.5 L 91.81884962205268 3.5 L 98.81884962205268 0 L 91.81884962205268 -3.5 L 91.81884962205268 -0.5 L 82.00708106102634 -0.5 Z"/><text text-anchor="middle" pointer-events="none" font-size="8px" fill="#000000" x="58.40942481102634" y="3" font-family="sans-serif">ENTHAELT</text></g><g class="relationship" transform="translate(446.94759358783966 364.59097731129754) rotate(408.3446505809718)"><path class="outline" fill="#A5ABB6" stroke="none" d="M 25 0.5 L 29.68597171916415 0.5 L 29.68597171916415 -0.5 L 25 -0.5 Z M 76.88128421916414 0.5 L 81.5672559383283 0.5 L 81.5672559383283 3.5 L 88.5672559383283 0 L 81.5672559383283 -3.5 L 81.5672559383283 -0.5 L 76.88128421916414 -0.5 Z"/><text text-anchor="middle" pointer-events="none" font-size="8px" fill="#000000" x="53.28362796916415" y="3" font-family="sans-serif">ENTHAELT</text></g><g class="relationship" transform="translate(522.4298769374537 449.44347592913635) rotate(377.2555808450879)"><path class="outline" fill="#A5ABB6" stroke="none" d="M 25 0.5 L 27.56859802126708 0.5 L 27.56859802126708 -0.5 L 25 -0.5 Z M 74.76391052126708 0.5 L 77.33250854253416 0.5 L 77.33250854253416 3.5 L 84.33250854253416 0 L 77.33250854253416 -3.5 L 77.33250854253416 -0.5 L 74.76391052126708 -0.5 Z"/><text text-anchor="middle" pointer-events="none" font-size="8px" fill="#000000" x="51.16625427126708" y="3" font-family="sans-serif">ENTHAELT</text></g><g class="relationship" transform="translate(626.8414446769788 481.8752804792671) rotate(314.79858124565703)"><path class="outline" fill="#A5ABB6" stroke="none" d="M 25 0.5 L 27.352461200463857 0.5 L 27.352461200463857 -0.5 L 25 -0.5 Z M 74.54777370046386 0.5 L 76.90023490092771 0.5 L 76.90023490092771 3.5 L 83.90023490092771 0 L 76.90023490092771 -3.5 L 76.90023490092771 -0.5 L 74.54777370046386 -0.5 Z"/><text text-anchor="middle" pointer-events="none" font-size="8px" fill="#000000" x="50.95011745046386" y="3" font-family="sans-serif">ENTHAELT</text></g><g class="relationship" transform="translate(703.5743622231142 404.6009605124423) rotate(288.63046797187275)"><path class="outline" fill="#A5ABB6" stroke="none" d="M 25 0.5 L 26.790468269701307 0.5 L 26.790468269701307 -0.5 L 25 -0.5 Z M 73.98578076970131 0.5 L 75.77624903940261 0.5 L 75.77624903940261 3.5 L 82.77624903940261 0 L 75.77624903940261 -3.5 L 75.77624903940261 -0.5 L 73.98578076970131 -0.5 Z"/><text text-anchor="middle" pointer-events="none" font-size="8px" fill="#000000" x="50.38812451970131" y="3" font-family="sans-serif">ENTHAELT</text></g><g class="relationship" transform="translate(106.86485061246934 122.81815296237632) rotate(355.4392757048279)"><path class="outline" fill="#A5ABB6" stroke="none" d="M 25 0.5 L 46.72238824941161 0.5 L 46.72238824941161 -0.5 L 25 -0.5 Z M 93.91770074941161 0.5 L 115.64008899882322 0.5 L 115.64008899882322 3.5 L 122.64008899882322 0 L 115.64008899882322 -3.5 L 115.64008899882322 -0.5 L 93.91770074941161 -0.5 Z"/><text text-anchor="middle" pointer-events="none" font-size="8px" fill="#000000" x="70.32004449941161" y="3" font-family="sans-serif">ENTHAELT</text></g><g class="relationship" transform="translate(254.03745496416636 111.07845927304663) rotate(354.7207293054594)"><path class="outline" fill="#A5ABB6" stroke="none" d="M 25 0.5 L 47.66606196225665 0.5 L 47.66606196225665 -0.5 L 25 -0.5 Z M 94.86137446225665 0.5 L 117.5274364245133 0.5 L 117.5274364245133 3.5 L 124.5274364245133 0 L 117.5274364245133 -3.5 L 117.5274364245133 -0.5 L 94.86137446225665 -0.5 Z"/><text text-anchor="middle" pointer-events="none" font-size="8px" fill="#000000" x="71.26371821225665" y="3" font-family="sans-serif">ENTHAELT</text></g><g class="relationship" transform="translate(402.9306038085001 97.32038997150808) rotate(356.13126528329803)"><path class="outline" fill="#A5ABB6" stroke="none" d="M 25 0.5 L 36.214360290285825 0.5 L 36.214360290285825 -0.5 L 25 -0.5 Z M 83.40967279028582 0.5 L 94.62403308057165 0.5 L 94.62403308057165 3.5 L 101.62403308057165 0 L 94.62403308057165 -3.5 L 94.62403308057165 -0.5 L 83.40967279028582 -0.5 Z"/><text text-anchor="middle" pointer-events="none" font-size="8px" fill="#000000" x="59.812016540285825" y="3" font-family="sans-serif">ENTHAELT</text></g><g class="relationship" transform="translate(529.2660917434913 88.77695729971873) rotate(360.1645917729584)"><path class="outline" fill="#A5ABB6" stroke="none" d="M 25 0.5 L 30.299399927446345 0.5 L 30.299399927446345 -0.5 L 25 -0.5 Z M 77.49471242744634 0.5 L 82.79411235489269 0.5 L 82.79411235489269 3.5 L 89.79411235489269 0 L 82.79411235489269 -3.5 L 82.79411235489269 -0.5 L 77.49471242744634 -0.5 Z"/><text text-anchor="middle" pointer-events="none" font-size="8px" fill="#000000" x="53.897056177446345" y="3" font-family="sans-serif">ENTHAELT</text></g><g class="relationship" transform="translate(644.0597304453736 89.10672226062465) rotate(334.9931266910661)"><path class="outline" fill="#A5ABB6" stroke="none" d="M 25 0.5 L 27.58935564465984 0.5 L 27.58935564465984 -0.5 L 25 -0.5 Z M 74.78466814465983 0.5 L 77.37402378931968 0.5 L 77.37402378931968 3.5 L 84.37402378931968 0 L 77.37402378931968 -3.5 L 77.37402378931968 -0.5 L 74.78466814465983 -0.5 Z"/><text text-anchor="middle" pointer-events="none" font-size="8px" fill="#000000" x="51.18701189465984" y="3" font-family="sans-serif">ENTHAELT</text></g><g class="relationship" transform="translate(743.1807141391796 42.87137137584266) rotate(276.16791589709874)"><path class="outline" fill="#A5ABB6" stroke="none" d="M 25 0.5 L 27.37220955754409 0.5 L 27.37220955754409 -0.5 L 25 -0.5 Z M 74.5675220575441 0.5 L 76.93973161508818 0.5 L 76.93973161508818 3.5 L 83.93973161508818 0 L 76.93973161508818 -3.5 L 76.93973161508818 -0.5 L 74.5675220575441 -0.5 Z"/><text text-anchor="middle" pointer-events="none" font-size="8px" fill="#000000" x="50.96986580754409" y="3" font-family="sans-serif">ENTHAELT</text></g><g class="relationship" transform="translate(754.8854865998871 -65.43773916436308) rotate(252.22971172870575)"><path class="outline" fill="#A5ABB6" stroke="none" d="M 25 0.5 L 26.91731564580067 0.5 L 26.91731564580067 -0.5 L 25 -0.5 Z M 74.11262814580067 0.5 L 76.02994379160134 0.5 L 76.02994379160134 3.5 L 83.02994379160134 0 L 76.02994379160134 -3.5 L 76.02994379160134 -0.5 L 74.11262814580067 -0.5 Z"/><text text-anchor="middle" pointer-events="none" font-size="8px" fill="#000000" x="50.51497189580067" y="3" transform="rotate(180 50.51497189580067 0)" font-family="sans-serif">ENTHAELT</text></g><g class="relationship" transform="translate(106.86485061246934 122.81815296237632) rotate(315.84865221937093)"><path class="outline" fill="#A5ABB6" stroke="none" d="M 25 0.5 L 47.957852565830876 0.5 L 47.957852565830876 -0.5 L 25 -0.5 Z M 95.15316506583088 0.5 L 118.11101763166175 0.5 L 118.11101763166175 3.5 L 125.11101763166175 0 L 118.11101763166175 -3.5 L 118.11101763166175 -0.5 L 95.15316506583088 -0.5 Z"/><text text-anchor="middle" pointer-events="none" font-size="8px" fill="#000000" x="71.55550881583088" y="3" font-family="sans-serif">ENTHAELT</text></g><g class="relationship" transform="translate(214.56985715525386 18.257408990119654) rotate(315.5559497012298)"><path class="outline" fill="#A5ABB6" stroke="none" d="M 25 0.5 L 48.78068122242574 0.5 L 48.78068122242574 -0.5 L 25 -0.5 Z M 95.97599372242574 0.5 L 119.75667494485148 0.5 L 119.75667494485148 3.5 L 126.75667494485148 0 L 119.75667494485148 -3.5 L 119.75667494485148 -0.5 L 95.97599372242574 -0.5 Z"/><text text-anchor="middle" pointer-events="none" font-size="8px" fill="#000000" x="72.37833747242574" y="3" font-family="sans-serif">ENTHAELT</text></g><g class="relationship" transform="translate(322.9141908091211 -88.00450213243073) rotate(314.8436825330141)"><path class="outline" fill="#A5ABB6" stroke="none" d="M 25 0.5 L 36.35494840636812 0.5 L 36.35494840636812 -0.5 L 25 -0.5 Z M 83.55026090636812 0.5 L 94.90520931273625 0.5 L 94.90520931273625 3.5 L 101.90520931273625 0 L 94.90520931273625 -3.5 L 94.90520931273625 -0.5 L 83.55026090636812 -0.5 Z"/><text text-anchor="middle" pointer-events="none" font-size="8px" fill="#000000" x="59.95260465636812" y="3" font-family="sans-serif">ENTHAELT</text></g><g class="relationship" transform="translate(412.40456984586956 -177.98452330695866) rotate(316.1533674103672)"><path class="outline" fill="#A5ABB6" stroke="none" d="M 25 0.5 L 30.205140479495945 0.5 L 30.205140479495945 -0.5 L 25 -0.5 Z M 77.40045297949595 0.5 L 82.60559345899189 0.5 L 82.60559345899189 3.5 L 89.60559345899189 0 L 82.60559345899189 -3.5 L 82.60559345899189 -0.5 L 77.40045297949595 -0.5 Z"/><text text-anchor="middle" pointer-events="none" font-size="8px" fill="#000000" x="53.802796729495945" y="3" font-family="sans-serif">ENTHAELT</text></g><g class="relationship" transform="translate(495.057740969132 -257.37529956816184) rotate(296.81459435906356)"><path class="outline" fill="#A5ABB6" stroke="none" d="M 25 0.5 L 27.59070341198307 0.5 L 27.59070341198307 -0.5 L 25 -0.5 Z M 74.78601591198307 0.5 L 77.37671932396614 0.5 L 77.37671932396614 3.5 L 84.37671932396614 0 L 77.37671932396614 -3.5 L 77.37671932396614 -0.5 L 74.78601591198307 -0.5 Z"/><text text-anchor="middle" pointer-events="none" font-size="8px" fill="#000000" x="51.18835966198307" y="3" font-family="sans-serif">ENTHAELT</text></g><g class="relationship" transform="translate(544.3981133809854 -354.99084331163175) rotate(240.473368124883)"><path class="outline" fill="#A5ABB6" stroke="none" d="M 25 0.5 L 27.146157637100167 0.5 L 27.146157637100167 -0.5 L 25 -0.5 Z M 74.34147013710017 0.5 L 76.48762777420033 0.5 L 76.48762777420033 3.5 L 83.48762777420033 0 L 76.48762777420033 -3.5 L 76.48762777420033 -0.5 L 74.34147013710017 -0.5 Z"/><text text-anchor="middle" pointer-events="none" font-size="8px" fill="#000000" x="50.74381388710017" y="3" transform="rotate(180 50.74381388710017 0)" font-family="sans-serif">ENTHAELT</text></g><g class="relationship" transform="translate(490.9323662156927 -449.388826659426) rotate(214.49640549258947)"><path class="outline" fill="#A5ABB6" stroke="none" d="M 25 0.5 L 26.98069768731741 0.5 L 26.98069768731741 -0.5 L 25 -0.5 Z M 74.17601018731742 0.5 L 76.15670787463482 0.5 L 76.15670787463482 3.5 L 83.15670787463482 0 L 76.15670787463482 -3.5 L 76.15670787463482 -0.5 L 74.17601018731742 -0.5 Z"/><text text-anchor="middle" pointer-events="none" font-size="8px" fill="#000000" x="50.57835393731741" y="3" transform="rotate(180 50.57835393731741 0)" font-family="sans-serif">ENTHAELT</text></g><g class="relationship" transform="translate(106.86485061246934 122.81815296237632) rotate(276.357534785225)"><path class="outline" fill="#A5ABB6" stroke="none" d="M 25 0.5 L 47.18911736672425 0.5 L 47.18911736672425 -0.5 L 25 -0.5 Z M 94.38442986672425 0.5 L 116.5735472334485 0.5 L 116.5735472334485 3.5 L 123.5735472334485 0 L 116.5735472334485 -3.5 L 116.5735472334485 -0.5 L 94.38442986672425 -0.5 Z"/><text text-anchor="middle" pointer-events="none" font-size="8px" fill="#000000" x="70.78677361672425" y="3" font-family="sans-serif">ENTHAELT</text></g><g class="relationship" transform="translate(123.31675054691169 -24.841705923093432) rotate(276.5346232321633)"><path class="outline" fill="#A5ABB6" stroke="none" d="M 25 0.5 L 48.30717912651549 0.5 L 48.30717912651549 -0.5 L 25 -0.5 Z M 95.50249162651549 0.5 L 118.80967075303099 0.5 L 118.80967075303099 3.5 L 125.80967075303099 0 L 118.80967075303099 -3.5 L 118.80967075303099 -0.5 L 95.50249162651549 -0.5 Z"/><text text-anchor="middle" pointer-events="none" font-size="8px" fill="#000000" x="71.90483537651549" y="3" font-family="sans-serif">ENTHAELT</text></g><g class="relationship" transform="translate(140.47943369208318 -174.6716064766747) rotate(276.9391190749375)"><path class="outline" fill="#A5ABB6" stroke="none" d="M 25 0.5 L 36.62367991778802 0.5 L 36.62367991778802 -0.5 L 25 -0.5 Z M 83.81899241778802 0.5 L 95.44267233557603 0.5 L 95.44267233557603 3.5 L 102.44267233557603 0 L 95.44267233557603 -3.5 L 95.44267233557603 -0.5 L 83.81899241778802 -0.5 Z"/><text text-anchor="middle" pointer-events="none" font-size="8px" fill="#000000" x="60.22133616778802" y="3" font-family="sans-serif">ENTHAELT</text></g><g class="relationship" transform="translate(155.87637203632153 -301.1807722381195) rotate(277.1517435169827)"><path class="outline" fill="#A5ABB6" stroke="none" d="M 25 0.5 L 30.53864199522142 0.5 L 30.53864199522142 -0.5 L 25 -0.5 Z M 77.73395449522141 0.5 L 83.27259649044284 0.5 L 83.27259649044284 3.5 L 90.27259649044284 0 L 83.27259649044284 -3.5 L 83.27259649044284 -0.5 L 77.73395449522141 -0.5 Z"/><text text-anchor="middle" pointer-events="none" font-size="8px" fill="#000000" x="54.13629824522142" y="3" font-family="sans-serif">ENTHAELT</text></g><g class="relationship" transform="translate(170.22753318020867 -415.5565374835186) rotate(261.6066772636058)"><path class="outline" fill="#A5ABB6" stroke="none" d="M 25 0.5 L 27.864330050617475 0.5 L 27.864330050617475 -0.5 L 25 -0.5 Z M 75.05964255061747 0.5 L 77.92397260123495 0.5 L 77.92397260123495 3.5 L 84.92397260123495 0 L 77.92397260123495 -3.5 L 77.92397260123495 -0.5 L 75.05964255061747 -0.5 Z"/><text text-anchor="middle" pointer-events="none" font-size="8px" fill="#000000" x="51.461986300617475" y="3" transform="rotate(180 51.461986300617475 0)" font-family="sans-serif">ENTHAELT</text></g><g class="relationship" transform="translate(154.18217959813782 -524.3031529750518) rotate(204.28701010154674)"><path class="outline" fill="#A5ABB6" stroke="none" d="M 25 0.5 L 26.673746829424267 0.5 L 26.673746829424267 -0.5 L 25 -0.5 Z M 73.86905932942426 0.5 L 75.54280615884853 0.5 L 75.54280615884853 3.5 L 82.54280615884853 0 L 75.54280615884853 -3.5 L 75.54280615884853 -0.5 L 73.86905932942426 -0.5 Z"/><text text-anchor="middle" pointer-events="none" font-size="8px" fill="#000000" x="50.27140307942427" y="3" transform="rotate(180 50.27140307942427 0)" font-family="sans-serif">ENTHAELT</text></g><g class="relationship" transform="translate(56.15728277417746 -568.5363391498188) rotate(532.0663349264016)"><path class="outline" fill="#A5ABB6" stroke="none" d="M 25 0.5 L 26.419094628030855 0.5 L 26.419094628030855 -0.5 L 25 -0.5 Z M 73.61440712803085 0.5 L 75.03350175606171 0.5 L 75.03350175606171 3.5 L 82.03350175606171 0 L 75.03350175606171 -3.5 L 75.03350175606171 -0.5 L 73.61440712803085 -0.5 Z"/><text text-anchor="middle" pointer-events="none" font-size="8px" fill="#000000" x="50.016750878030855" y="3" transform="rotate(180 50.016750878030855 0)" font-family="sans-serif">ENTHAELT</text></g><g class="relationship" transform="translate(106.86485061246934 122.81815296237632) rotate(236.17255769290892)"><path class="outline" fill="#A5ABB6" stroke="none" d="M 25 0.5 L 45.15687119474677 0.5 L 45.15687119474677 -0.5 L 25 -0.5 Z M 92.35218369474677 0.5 L 112.50905488949354 0.5 L 112.50905488949354 3.5 L 119.50905488949354 0 L 112.50905488949354 -3.5 L 112.50905488949354 -0.5 L 92.35218369474677 -0.5 Z"/><text text-anchor="middle" pointer-events="none" font-size="8px" fill="#000000" x="68.75452744474677" y="3" transform="rotate(180 68.75452744474677 0)" font-family="sans-serif">ENTHAELT</text></g><g class="relationship" transform="translate(26.417590560492624 2.771889816936071) rotate(238.60900133477713)"><path class="outline" fill="#A5ABB6" stroke="none" d="M 25 0.5 L 46.06999353997823 0.5 L 46.06999353997823 -0.5 L 25 -0.5 Z M 93.26530603997823 0.5 L 114.33529957995646 0.5 L 114.33529957995646 3.5 L 121.33529957995646 0 L 114.33529957995646 -3.5 L 114.33529957995646 -0.5 L 93.26530603997823 -0.5 Z"/><text text-anchor="middle" pointer-events="none" font-size="8px" fill="#000000" x="69.66764978997823" y="3" transform="rotate(180 69.66764978997823 0)" font-family="sans-serif">ENTHAELT</text></g><g class="relationship" transform="translate(-49.80488617781945 -122.14469812491046) rotate(240.29561850375404)"><path class="outline" fill="#A5ABB6" stroke="none" d="M 25 0.5 L 34.85183844534361 0.5 L 34.85183844534361 -0.5 L 25 -0.5 Z M 82.04715094534362 0.5 L 91.89898939068722 0.5 L 91.89898939068722 3.5 L 98.89898939068722 0 L 91.89898939068722 -3.5 L 91.89898939068722 -0.5 L 82.04715094534362 -0.5 Z"/><text text-anchor="middle" pointer-events="none" font-size="8px" fill="#000000" x="58.44949469534361" y="3" transform="rotate(180 58.44949469534361 0)" font-family="sans-serif">ENTHAELT</text></g><g class="relationship" transform="translate(-111.19994436490421 -229.76257025699687) rotate(243.72026447174437)"><path class="outline" fill="#A5ABB6" stroke="none" d="M 25 0.5 L 29.130660301471195 0.5 L 29.130660301471195 -0.5 L 25 -0.5 Z M 76.3259728014712 0.5 L 80.45663310294239 0.5 L 80.45663310294239 3.5 L 87.45663310294239 0 L 80.45663310294239 -3.5 L 80.45663310294239 -0.5 L 76.3259728014712 -0.5 Z"/><text text-anchor="middle" pointer-events="none" font-size="8px" fill="#000000" x="52.728316551471195" y="3" transform="rotate(180 52.728316551471195 0)" font-family="sans-serif">ENTHAELT</text></g><g class="relationship" transform="translate(-160.99057886923327 -330.59603218559533) rotate(238.54724952600606)"><path class="outline" fill="#A5ABB6" stroke="none" d="M 25 0.5 L 27.472098955768175 0.5 L 27.472098955768175 -0.5 L 25 -0.5 Z M 74.66741145576817 0.5 L 77.13951041153635 0.5 L 77.13951041153635 3.5 L 84.13951041153635 0 L 77.13951041153635 -3.5 L 77.13951041153635 -0.5 L 74.66741145576817 -0.5 Z"/><text text-anchor="middle" pointer-events="none" font-size="8px" fill="#000000" x="51.069755205768175" y="3" transform="rotate(180 51.069755205768175 0)" font-family="sans-serif">ENTHAELT</text></g><g class="relationship" transform="translate(-217.939056887044 -423.6997570537486) rotate(538.7882416320305)"><path class="outline" fill="#A5ABB6" stroke="none" d="M 25 0.5 L 26.316747223722892 0.5 L 26.316747223722892 -0.5 L 25 -0.5 Z M 73.5120597237229 0.5 L 74.82880694744578 0.5 L 74.82880694744578 3.5 L 81.82880694744578 0 L 74.82880694744578 -3.5 L 74.82880694744578 -0.5 L 73.5120597237229 -0.5 Z"/><text text-anchor="middle" pointer-events="none" font-size="8px" fill="#000000" x="49.91440347372289" y="3" transform="rotate(180 49.91440347372289 0)" font-family="sans-serif">ENTHAELT</text></g><g class="relationship" transform="translate(-324.74397312843786 -421.44058453189916) rotate(497.7954892652253)"><path class="outline" fill="#A5ABB6" stroke="none" d="M 25 0.5 L 26.433188444560244 0.5 L 26.433188444560244 -0.5 L 25 -0.5 Z M 73.62850094456024 0.5 L 75.06168938912049 0.5 L 75.06168938912049 3.5 L 82.06168938912049 0 L 75.06168938912049 -3.5 L 75.06168938912049 -0.5 L 73.62850094456024 -0.5 Z"/><text text-anchor="middle" pointer-events="none" font-size="8px" fill="#000000" x="50.030844694560244" y="3" transform="rotate(180 50.030844694560244 0)" font-family="sans-serif">ENTHAELT</text></g><g class="relationship" transform="translate(106.86485061246934 122.81815296237632) rotate(197.6757615507177)"><path class="outline" fill="#A5ABB6" stroke="none" d="M 25 0.5 L 46.98176034501542 0.5 L 46.98176034501542 -0.5 L 25 -0.5 Z M 94.17707284501542 0.5 L 116.15883319003083 0.5 L 116.15883319003083 3.5 L 123.15883319003083 0 L 116.15883319003083 -3.5 L 116.15883319003083 -0.5 L 94.17707284501542 -0.5 Z"/><text text-anchor="middle" pointer-events="none" font-size="8px" fill="#000000" x="70.57941659501542" y="3" transform="rotate(180 70.57941659501542 0)" font-family="sans-serif">ENTHAELT</text></g><g class="relationship" transform="translate(-34.29940619269738 77.83268360974736) rotate(199.47910793008418)"><path class="outline" fill="#A5ABB6" stroke="none" d="M 25 0.5 L 47.86056108372888 0.5 L 47.86056108372888 -0.5 L 25 -0.5 Z M 95.05587358372888 0.5 L 117.91643466745776 0.5 L 117.91643466745776 3.5 L 124.91643466745776 0 L 117.91643466745776 -3.5 L 117.91643466745776 -0.5 L 95.05587358372888 -0.5 Z"/><text text-anchor="middle" pointer-events="none" font-size="8px" fill="#000000" x="71.45821733372888" y="3" transform="rotate(180 71.45821733372888 0)" font-family="sans-serif">ENTHAELT</text></g><g class="relationship" transform="translate(-175.6350958103739 27.841082078110706) rotate(204.73960733404272)"><path class="outline" fill="#A5ABB6" stroke="none" d="M 25 0.5 L 35.85368052492131 0.5 L 35.85368052492131 -0.5 L 25 -0.5 Z M 83.04899302492132 0.5 L 93.90267354984262 0.5 L 93.90267354984262 3.5 L 100.90267354984262 0 L 93.90267354984262 -3.5 L 93.90267354984262 -0.5 L 83.04899302492132 -0.5 Z"/><text text-anchor="middle" pointer-events="none" font-size="8px" fill="#000000" x="59.45133677492131" y="3" transform="rotate(180 59.45133677492131 0)" font-family="sans-serif">ENTHAELT</text></g><g class="relationship" transform="translate(-289.982308417662 -24.848558041574048) rotate(217.74412759420113)"><path class="outline" fill="#A5ABB6" stroke="none" d="M 25 0.5 L 30.336832357836606 0.5 L 30.336832357836606 -0.5 L 25 -0.5 Z M 77.53214485783661 0.5 L 82.86897721567321 0.5 L 82.86897721567321 3.5 L 89.86897721567321 0 L 82.86897721567321 -3.5 L 82.86897721567321 -0.5 L 77.53214485783661 -0.5 Z"/><text text-anchor="middle" pointer-events="none" font-size="8px" fill="#000000" x="53.934488607836606" y="3" transform="rotate(180 53.934488607836606 0)" font-family="sans-serif">ENTHAELT</text></g><g class="relationship" transform="translate(-380.81521835566167 -95.16402148148956) rotate(196.87317788087893)"><path class="outline" fill="#A5ABB6" stroke="none" d="M 25 0.5 L 28.241617447974477 0.5 L 28.241617447974477 -0.5 L 25 -0.5 Z M 75.43692994797448 0.5 L 78.67854739594895 0.5 L 78.67854739594895 3.5 L 85.67854739594895 0 L 78.67854739594895 -3.5 L 78.67854739594895 -0.5 L 75.43692994797448 -0.5 Z"/><text text-anchor="middle" pointer-events="none" font-size="8px" fill="#000000" x="51.83927369797448" y="3" transform="rotate(180 51.83927369797448 0)" font-family="sans-serif">ENTHAELT</text></g><g class="relationship" transform="translate(-486.7290063485942 -127.28893963960249) rotate(490.99641192872105)"><path class="outline" fill="#A5ABB6" stroke="none" d="M 25 0.5 L 27.239676548112655 0.5 L 27.239676548112655 -0.5 L 25 -0.5 Z M 74.43498904811266 0.5 L 76.67466559622531 0.5 L 76.67466559622531 3.5 L 83.67466559622531 0 L 76.67466559622531 -3.5 L 76.67466559622531 -0.5 L 74.43498904811266 -0.5 Z"/><text text-anchor="middle" pointer-events="none" font-size="8px" fill="#000000" x="50.837332798112655" y="3" transform="rotate(180 50.837332798112655 0)" font-family="sans-serif">ENTHAELT</text></g><g class="relationship" transform="translate(-558.0208655403916 -45.2666636688131) rotate(454.94038558897995)"><path class="outline" fill="#A5ABB6" stroke="none" d="M 25 0.5 L 26.935743730963814 0.5 L 26.935743730963814 -0.5 L 25 -0.5 Z M 74.13105623096382 0.5 L 76.06679996192763 0.5 L 76.06679996192763 3.5 L 83.06679996192763 0 L 76.06679996192763 -3.5 L 76.06679996192763 -0.5 L 74.13105623096382 -0.5 Z"/><text text-anchor="middle" pointer-events="none" font-size="8px" fill="#000000" x="50.533399980963814" y="3" transform="rotate(180 50.533399980963814 0)" font-family="sans-serif">ENTHAELT</text></g><g class="relationship" transform="translate(106.86485061246934 122.81815296237632) rotate(518.4959308960795)"><path class="outline" fill="#A5ABB6" stroke="none" d="M 25 0.5 L 46.69740376917706 0.5 L 46.69740376917706 -0.5 L 25 -0.5 Z M 93.89271626917706 0.5 L 115.59012003835412 0.5 L 115.59012003835412 3.5 L 122.59012003835412 0 L 115.59012003835412 -3.5 L 115.59012003835412 -0.5 L 93.89271626917706 -0.5 Z"/><text text-anchor="middle" pointer-events="none" font-size="8px" fill="#000000" x="70.29506001917706" y="3" transform="rotate(180 70.29506001917706 0)" font-family="sans-serif">ENTHAELT</text></g><g class="relationship" transform="translate(-30.451748014460783 176.91986526860882) rotate(519.0926208593584)"><path class="outline" fill="#A5ABB6" stroke="none" d="M 25 0.5 L 47.55698682565469 0.5 L 47.55698682565469 -0.5 L 25 -0.5 Z M 94.75229932565469 0.5 L 117.30928615130938 0.5 L 117.30928615130938 3.5 L 124.30928615130938 0 L 117.30928615130938 -3.5 L 117.30928615130938 -0.5 L 94.75229932565469 -0.5 Z"/><text text-anchor="middle" pointer-events="none" font-size="8px" fill="#000000" x="71.15464307565469" y="3" transform="rotate(180 71.15464307565469 0)" font-family="sans-serif">ENTHAELT</text></g><g class="relationship" transform="translate(-169.9302901132211 230.202125215217) rotate(525.2438743191756)"><path class="outline" fill="#A5ABB6" stroke="none" d="M 25 0.5 L 35.296891771857176 0.5 L 35.296891771857176 -0.5 L 25 -0.5 Z M 82.49220427185718 0.5 L 92.78909604371435 0.5 L 92.78909604371435 3.5 L 99.78909604371435 0 L 92.78909604371435 -3.5 L 92.78909604371435 -0.5 L 82.49220427185718 -0.5 Z"/><text text-anchor="middle" pointer-events="none" font-size="8px" fill="#000000" x="58.894548021857176" y="3" transform="rotate(180 58.894548021857176 0)" font-family="sans-serif">ENTHAELT</text></g><g class="relationship" transform="translate(-290.6036811724378 261.98657395476135) rotate(537.8386370345067)"><path class="outline" fill="#A5ABB6" stroke="none" d="M 25 0.5 L 29.52851254724856 0.5 L 29.52851254724856 -0.5 L 25 -0.5 Z M 76.72382504724857 0.5 L 81.25233759449712 0.5 L 81.25233759449712 3.5 L 88.25233759449712 0 L 81.25233759449712 -3.5 L 81.25233759449712 -0.5 L 76.72382504724857 -0.5 Z"/><text text-anchor="middle" pointer-events="none" font-size="8px" fill="#000000" x="53.12616879724856" y="3" transform="rotate(180 53.12616879724856 0)" font-family="sans-serif">ENTHAELT</text></g><g class="relationship" transform="translate(-403.77544831042223 266.25776740434594) rotate(521.8529147830704)"><path class="outline" fill="#A5ABB6" stroke="none" d="M 25 0.5 L 27.56638250095424 0.5 L 27.56638250095424 -0.5 L 25 -0.5 Z M 74.76169500095423 0.5 L 77.32807750190848 0.5 L 77.32807750190848 3.5 L 84.32807750190848 0 L 77.32807750190848 -3.5 L 77.32807750190848 -0.5 L 74.76169500095423 -0.5 Z"/><text text-anchor="middle" pointer-events="none" font-size="8px" fill="#000000" x="51.16403875095424" y="3" transform="rotate(180 51.16403875095424 0)" font-family="sans-serif">ENTHAELT</text></g><g class="relationship" transform="translate(-507.66555809042444 300.3088117372647) rotate(449.3373579865812)"><path class="outline" fill="#A5ABB6" stroke="none" d="M 25 0.5 L 27.661948224447976 0.5 L 27.661948224447976 -0.5 L 25 -0.5 Z M 74.85726072444797 0.5 L 77.51920894889595 0.5 L 77.51920894889595 3.5 L 84.51920894889595 0 L 77.51920894889595 -3.5 L 77.51920894889595 -0.5 L 74.85726072444797 -0.5 Z"/><text text-anchor="middle" pointer-events="none" font-size="8px" fill="#000000" x="51.259604474447976" y="3" font-family="sans-serif">ENTHAELT</text></g><g class="relationship" transform="translate(-506.3989654734523 409.82069635228976) rotate(415.98954808606067)"><path class="outline" fill="#A5ABB6" stroke="none" d="M 25 0.5 L 27.938572766598597 0.5 L 27.938572766598597 -0.5 L 25 -0.5 Z M 75.1338852665986 0.5 L 78.0724580331972 0.5 L 78.0724580331972 3.5 L 85.0724580331972 0 L 78.0724580331972 -3.5 L 78.0724580331972 -0.5 L 75.1338852665986 -0.5 Z"/><text text-anchor="middle" pointer-events="none" font-size="8px" fill="#000000" x="51.5362290165986" y="3" font-family="sans-serif">ENTHAELT</text></g><g class="relationship" transform="translate(106.86485061246934 122.81815296237632) rotate(478.35982440053067)"><path class="outline" fill="#A5ABB6" stroke="none" d="M 25 0.5 L 46.94321601615759 0.5 L 46.94321601615759 -0.5 L 25 -0.5 Z M 94.13852851615759 0.5 L 116.08174453231518 0.5 L 116.08174453231518 3.5 L 123.08174453231518 0 L 116.08174453231518 -3.5 L 116.08174453231518 -0.5 L 94.13852851615759 -0.5 Z"/><text text-anchor="middle" pointer-events="none" font-size="8px" fill="#000000" x="70.54087226615759" y="3" transform="rotate(180 70.54087226615759 0)" font-family="sans-serif">ENTHAELT</text></g><g class="relationship" transform="translate(36.524943080048985 253.12740233502984) rotate(479.09617884644217)"><path class="outline" fill="#A5ABB6" stroke="none" d="M 25 0.5 L 46.97436585066313 0.5 L 46.97436585066313 -0.5 L 25 -0.5 Z M 94.16967835066313 0.5 L 116.14404420132627 0.5 L 116.14404420132627 3.5 L 123.14404420132627 0 L 116.14404420132627 -3.5 L 116.14404420132627 -0.5 L 94.16967835066313 -0.5 Z"/><text text-anchor="middle" pointer-events="none" font-size="8px" fill="#000000" x="70.57202210066313" y="3" transform="rotate(180 70.57202210066313 0)" font-family="sans-serif">ENTHAELT</text></g><g class="relationship" transform="translate(-35.51411400198445 382.5763578621257) rotate(485.1431583782853)"><path class="outline" fill="#A5ABB6" stroke="none" d="M 25 0.5 L 35.605559623911354 0.5 L 35.605559623911354 -0.5 L 25 -0.5 Z M 82.80087212391135 0.5 L 93.40643174782271 0.5 L 93.40643174782271 3.5 L 100.40643174782271 0 L 93.40643174782271 -3.5 L 93.40643174782271 -0.5 L 82.80087212391135 -0.5 Z"/><text text-anchor="middle" pointer-events="none" font-size="8px" fill="#000000" x="59.203215873911354" y="3" transform="rotate(180 59.203215873911354 0)" font-family="sans-serif">ENTHAELT</text></g><g class="relationship" transform="translate(-107.70073540918486 485.1232486659664) rotate(495.40274612646016)"><path class="outline" fill="#A5ABB6" stroke="none" d="M 25 0.5 L 30.140598806737195 0.5 L 30.140598806737195 -0.5 L 25 -0.5 Z M 77.33591130673719 0.5 L 82.47651011347439 0.5 L 82.47651011347439 3.5 L 89.47651011347439 0 L 82.47651011347439 -3.5 L 82.47651011347439 -0.5 L 77.33591130673719 -0.5 Z"/><text text-anchor="middle" pointer-events="none" font-size="8px" fill="#000000" x="53.738255056737195" y="3" transform="rotate(180 53.738255056737195 0)" font-family="sans-serif">ENTHAELT</text></g><g class="relationship" transform="translate(-189.21484470086895 565.4993729451563) rotate(464.57185219735493)"><path class="outline" fill="#A5ABB6" stroke="none" d="M 25 0.5 L 27.67629107228148 0.5 L 27.67629107228148 -0.5 L 25 -0.5 Z M 74.87160357228149 0.5 L 77.54789464456296 0.5 L 77.54789464456296 3.5 L 84.54789464456296 0 L 77.54789464456296 -3.5 L 77.54789464456296 -0.5 L 74.87160357228149 -0.5 Z"/><text text-anchor="middle" pointer-events="none" font-size="8px" fill="#000000" x="51.27394732228148" y="3" transform="rotate(180 51.27394732228148 0)" font-family="sans-serif">ENTHAELT</text></g><g class="relationship" transform="translate(-216.77642889685347 671.5234282234936) rotate(398.9640803498454)"><path class="outline" fill="#A5ABB6" stroke="none" d="M 25 0.5 L 27.542815996140313 0.5 L 27.542815996140313 -0.5 L 25 -0.5 Z M 74.73812849614032 0.5 L 77.28094449228063 0.5 L 77.28094449228063 3.5 L 84.28094449228063 0 L 77.28094449228063 -3.5 L 77.28094449228063 -0.5 L 74.73812849614032 -0.5 Z"/><text text-anchor="middle" pointer-events="none" font-size="8px" fill="#000000" x="51.14047224614031" y="3" font-family="sans-serif">ENTHAELT</text></g><g class="relationship" transform="translate(-131.80608617867207 740.24289917227) rotate(371.37211914551574)"><path class="outline" fill="#A5ABB6" stroke="none" d="M 25 0.5 L 27.288045034334353 0.5 L 27.288045034334353 -0.5 L 25 -0.5 Z M 74.48335753433435 0.5 L 76.7714025686687 0.5 L 76.7714025686687 3.5 L 83.7714025686687 0 L 76.7714025686687 -3.5 L 76.7714025686687 -0.5 L 74.48335753433435 -0.5 Z"/><text text-anchor="middle" pointer-events="none" font-size="8px" fill="#000000" x="50.88570128433435" y="3" font-family="sans-serif">ENTHAELT</text></g></g><g class="layer nodes"><g class="node" transform="translate(139.40772774875663,263.8162063690673)"><circle class="outline" cx="0" cy="0" r="25" fill="#D9C8AE" stroke="#c0a378" stroke-width="2px"/><text text-anchor="middle" pointer-events="none" font-family="sans-serif" dy="1.5625" font-size="25" fill="#604A0E"/><text text-anchor="middle" pointer-events="none" y="5" font-size="10px" fill="#604A0E" font-family="sans-serif"> Element 6</text></g><g class="node" transform="translate(106.86485061246934,122.81815296237632)"><circle class="outline" cx="0" cy="0" r="25" fill="#F79767" stroke="#f36924" stroke-width="2px"/><text text-anchor="middle" pointer-events="none" font-family="sans-serif" dy="1.5625" font-size="25" fill="#FFFFFF"/><text text-anchor="middle" pointer-events="none" y="5" font-size="10px" fill="#FFFFFF" font-family="sans-serif"> TestSign…</text></g><g class="node" transform="translate(170.5719443991136,405.7882516875941)"><circle class="outline" cx="0" cy="0" r="25" fill="#D9C8AE" stroke="#c0a378" stroke-width="2px"/><text text-anchor="middle" pointer-events="none" font-family="sans-serif" dy="1.5625" font-size="25" fill="#604A0E"/><text text-anchor="middle" pointer-events="none" y="5" font-size="10px" fill="#604A0E" font-family="sans-serif"> Child 0</text></g><g class="node" transform="translate(191.01379981705642,526.3819040168846)"><circle class="outline" cx="0" cy="0" r="25" fill="#D9C8AE" stroke="#c0a378" stroke-width="2px"/><text text-anchor="middle" pointer-events="none" font-family="sans-serif" dy="1.5625" font-size="25" fill="#604A0E"/><text text-anchor="middle" pointer-events="none" y="5" font-size="10px" fill="#604A0E" font-family="sans-serif"> Child 1</text></g><g class="node" transform="translate(186.88343877296853,639.5350848249872)"><circle class="outline" cx="0" cy="0" r="25" fill="#D9C8AE" stroke="#c0a378" stroke-width="2px"/><text text-anchor="middle" pointer-events="none" font-family="sans-serif" dy="1.5625" font-size="25" fill="#604A0E"/><text text-anchor="middle" pointer-events="none" y="5" font-size="10px" fill="#604A0E" font-family="sans-serif"> Child 2</text></g><g class="node" transform="translate(241.13186481547018,734.0426756324086)"><circle class="outline" cx="0" cy="0" r="25" fill="#D9C8AE" stroke="#c0a378" stroke-width="2px"/><text text-anchor="middle" pointer-events="none" font-family="sans-serif" dy="1.5625" font-size="25" fill="#604A0E"/><text text-anchor="middle" pointer-events="none" y="5" font-size="10px" fill="#604A0E" font-family="sans-serif"> Child 3</text></g><g class="node" transform="translate(350.09534760506375,727.7578760949787)"><circle class="outline" cx="0" cy="0" r="25" fill="#D9C8AE" stroke="#c0a378" stroke-width="2px"/><text text-anchor="middle" pointer-events="none" font-family="sans-serif" dy="1.5625" font-size="25" fill="#604A0E"/><text text-anchor="middle" pointer-events="none" y="5" font-size="10px" fill="#604A0E" font-family="sans-serif"> Child 4</text></g><g class="node" transform="translate(448.2093961972457,680.7438026129274)"><circle class="outline" cx="0" cy="0" r="25" fill="#D9C8AE" stroke="#c0a378" stroke-width="2px"/><text text-anchor="middle" pointer-events="none" font-family="sans-serif" dy="1.5625" font-size="25" fill="#604A0E"/><text text-anchor="middle" pointer-events="none" y="5" font-size="10px" fill="#604A0E" font-family="sans-serif"> Child 5</text></g><g class="node" transform="translate(226.61071054667337,208.48090433604114)"><circle class="outline" cx="0" cy="0" r="25" fill="#D9C8AE" stroke="#c0a378" stroke-width="2px"/><text text-anchor="middle" pointer-events="none" font-family="sans-serif" dy="1.5625" font-size="25" fill="#604A0E"/><text text-anchor="middle" pointer-events="none" y="5" font-size="10px" fill="#604A0E" font-family="sans-serif"> Element 4</text></g><g class="node" transform="translate(347.4719531501228,290.8637470552072)"><circle class="outline" cx="0" cy="0" r="25" fill="#D9C8AE" stroke="#c0a378" stroke-width="2px"/><text text-anchor="middle" pointer-events="none" font-family="sans-serif" dy="1.5625" font-size="25" fill="#604A0E"/><text text-anchor="middle" pointer-events="none" y="5" font-size="10px" fill="#604A0E" font-family="sans-serif"> Child 0</text></g><g class="node" transform="translate(446.94759358783966,364.59097731129754)"><circle class="outline" cx="0" cy="0" r="25" fill="#D9C8AE" stroke="#c0a378" stroke-width="2px"/><text text-anchor="middle" pointer-events="none" font-family="sans-serif" dy="1.5625" font-size="25" fill="#604A0E"/><text text-anchor="middle" pointer-events="none" y="5" font-size="10px" fill="#604A0E" font-family="sans-serif"> Child 1</text></g><g class="node" transform="translate(522.4298769374537,449.44347592913635)"><circle class="outline" cx="0" cy="0" r="25" fill="#D9C8AE" stroke="#c0a378" stroke-width="2px"/><text text-anchor="middle" pointer-events="none" font-family="sans-serif" dy="1.5625" font-size="25" fill="#604A0E"/><text text-anchor="middle" pointer-events="none" y="5" font-size="10px" fill="#604A0E" font-family="sans-serif"> Child 2</text></g><g class="node" transform="translate(626.8414446769788,481.8752804792671)"><circle class="outline" cx="0" cy="0" r="25" fill="#D9C8AE" stroke="#c0a378" stroke-width="2px"/><text text-anchor="middle" pointer-events="none" font-family="sans-serif" dy="1.5625" font-size="25" fill="#604A0E"/><text text-anchor="middle" pointer-events="none" y="5" font-size="10px" fill="#604A0E" font-family="sans-serif"> Child 3</text></g><g class="node" transform="translate(703.5743622231142,404.6009605124423)"><circle class="outline" cx="0" cy="0" r="25" fill="#D9C8AE" stroke="#c0a378" stroke-width="2px"/><text text-anchor="middle" pointer-events="none" font-family="sans-serif" dy="1.5625" font-size="25" fill="#604A0E"/><text text-anchor="middle" pointer-events="none" y="5" font-size="10px" fill="#604A0E" font-family="sans-serif"> Child 4</text></g><g class="node" transform="translate(738.0049136172798,302.472330894215)"><circle class="outline" cx="0" cy="0" r="25" fill="#D9C8AE" stroke="#c0a378" stroke-width="2px"/><text text-anchor="middle" pointer-events="none" font-family="sans-serif" dy="1.5625" font-size="25" fill="#604A0E"/><text text-anchor="middle" pointer-events="none" y="5" font-size="10px" fill="#604A0E" font-family="sans-serif"> Child 5</text></g><g class="node" transform="translate(254.03745496416636,111.07845927304663)"><circle class="outline" cx="0" cy="0" r="25" fill="#D9C8AE" stroke="#c0a378" stroke-width="2px"/><text text-anchor="middle" pointer-events="none" font-family="sans-serif" dy="1.5625" font-size="25" fill="#604A0E"/><text text-anchor="middle" pointer-events="none" y="5" font-size="10px" fill="#604A0E" font-family="sans-serif"> Element 8</text></g><g class="node" transform="translate(402.9306038085001,97.32038997150808)"><circle class="outline" cx="0" cy="0" r="25" fill="#D9C8AE" stroke="#c0a378" stroke-width="2px"/><text text-anchor="middle" pointer-events="none" font-family="sans-serif" dy="1.5625" font-size="25" fill="#604A0E"/><text text-anchor="middle" pointer-events="none" y="5" font-size="10px" fill="#604A0E" font-family="sans-serif"> Child 0</text></g><g class="node" transform="translate(529.2660917434913,88.77695729971873)"><circle class="outline" cx="0" cy="0" r="25" fill="#D9C8AE" stroke="#c0a378" stroke-width="2px"/><text text-anchor="middle" pointer-events="none" font-family="sans-serif" dy="1.5625" font-size="25" fill="#604A0E"/><text text-anchor="middle" pointer-events="none" y="5" font-size="10px" fill="#604A0E" font-family="sans-serif"> Child 1</text></g><g class="node" transform="translate(644.0597304453736,89.10672226062465)"><circle class="outline" cx="0" cy="0" r="25" fill="#D9C8AE" stroke="#c0a378" stroke-width="2px"/><text text-anchor="middle" pointer-events="none" font-family="sans-serif" dy="1.5625" font-size="25" fill="#604A0E"/><text text-anchor="middle" pointer-events="none" y="5" font-size="10px" fill="#604A0E" font-family="sans-serif"> Child 2</text></g><g class="node" transform="translate(743.1807141391796,42.87137137584266)"><circle class="outline" cx="0" cy="0" r="25" fill="#D9C8AE" stroke="#c0a378" stroke-width="2px"/><text text-anchor="middle" pointer-events="none" font-family="sans-serif" dy="1.5625" font-size="25" fill="#604A0E"/><text text-anchor="middle" pointer-events="none" y="5" font-size="10px" fill="#604A0E" font-family="sans-serif"> Child 3</text></g><g class="node" transform="translate(754.8854865998871,-65.43773916436308)"><circle class="outline" cx="0" cy="0" r="25" fill="#D9C8AE" stroke="#c0a378" stroke-width="2px"/><text text-anchor="middle" pointer-events="none" font-family="sans-serif" dy="1.5625" font-size="25" fill="#604A0E"/><text text-anchor="middle" pointer-events="none" y="5" font-size="10px" fill="#604A0E" font-family="sans-serif"> Child 4</text></g><g class="node" transform="translate(721.9145834918098,-168.31333541466105)"><circle class="outline" cx="0" cy="0" r="25" fill="#D9C8AE" stroke="#c0a378" stroke-width="2px"/><text text-anchor="middle" pointer-events="none" font-family="sans-serif" dy="1.5625" font-size="25" fill="#604A0E"/><text text-anchor="middle" pointer-events="none" y="5" font-size="10px" fill="#604A0E" font-family="sans-serif"> Child 5</text></g><g class="node" transform="translate(214.56985715525386,18.257408990119654)"><circle class="outline" cx="0" cy="0" r="25" fill="#D9C8AE" stroke="#c0a378" stroke-width="2px"/><text text-anchor="middle" pointer-events="none" font-family="sans-serif" dy="1.5625" font-size="25" fill="#604A0E"/><text text-anchor="middle" pointer-events="none" y="5" font-size="10px" fill="#604A0E" font-family="sans-serif"> Element 1</text></g><g class="node" transform="translate(322.9141908091211,-88.00450213243073)"><circle class="outline" cx="0" cy="0" r="25" fill="#D9C8AE" stroke="#c0a378" stroke-width="2px"/><text text-anchor="middle" pointer-events="none" font-family="sans-serif" dy="1.5625" font-size="25" fill="#604A0E"/><text text-anchor="middle" pointer-events="none" y="5" font-size="10px" fill="#604A0E" font-family="sans-serif"> Child 0</text></g><g class="node" transform="translate(412.40456984586956,-177.98452330695866)"><circle class="outline" cx="0" cy="0" r="25" fill="#D9C8AE" stroke="#c0a378" stroke-width="2px"/><text text-anchor="middle" pointer-events="none" font-family="sans-serif" dy="1.5625" font-size="25" fill="#604A0E"/><text text-anchor="middle" pointer-events="none" y="5" font-size="10px" fill="#604A0E" font-family="sans-serif"> Child 1</text></g><g class="node" transform="translate(495.057740969132,-257.37529956816184)"><circle class="outline" cx="0" cy="0" r="25" fill="#D9C8AE" stroke="#c0a378" stroke-width="2px"/><text text-anchor="middle" pointer-events="none" font-family="sans-serif" dy="1.5625" font-size="25" fill="#604A0E"/><text text-anchor="middle" pointer-events="none" y="5" font-size="10px" fill="#604A0E" font-family="sans-serif"> Child 2</text></g><g class="node" transform="translate(544.3981133809854,-354.99084331163175)"><circle class="outline" cx="0" cy="0" r="25" fill="#D9C8AE" stroke="#c0a378" stroke-width="2px"/><text text-anchor="middle" pointer-events="none" font-family="sans-serif" dy="1.5625" font-size="25" fill="#604A0E"/><text text-anchor="middle" pointer-events="none" y="5" font-size="10px" fill="#604A0E" font-family="sans-serif"> Child 3</text></g><g class="node" transform="translate(490.9323662156927,-449.388826659426)"><circle class="outline" cx="0" cy="0" r="25" fill="#D9C8AE" stroke="#c0a378" stroke-width="2px"/><text text-anchor="middle" pointer-events="none" font-family="sans-serif" dy="1.5625" font-size="25" fill="#604A0E"/><text text-anchor="middle" pointer-events="none" y="5" font-size="10px" fill="#604A0E" font-family="sans-serif"> Child 4</text></g><g class="node" transform="translate(401.79374771000295,-510.6438684860071)"><circle class="outline" cx="0" cy="0" r="25" fill="#D9C8AE" stroke="#c0a378" stroke-width="2px"/><text text-anchor="middle" pointer-events="none" font-family="sans-serif" dy="1.5625" font-size="25" fill="#604A0E"/><text text-anchor="middle" pointer-events="none" y="5" font-size="10px" fill="#604A0E" font-family="sans-serif"> Child 5</text></g><g class="node" transform="translate(123.31675054691169,-24.841705923093432)"><circle class="outline" cx="0" cy="0" r="25" fill="#D9C8AE" stroke="#c0a378" stroke-width="2px"/><text text-anchor="middle" pointer-events="none" font-family="sans-serif" dy="1.5625" font-size="25" fill="#604A0E"/><text text-anchor="middle" pointer-events="none" y="5" font-size="10px" fill="#604A0E" font-family="sans-serif"> Element 3</text></g><g class="node" transform="translate(140.47943369208318,-174.6716064766747)"><circle class="outline" cx="0" cy="0" r="25" fill="#D9C8AE" stroke="#c0a378" stroke-width="2px"/><text text-anchor="middle" pointer-events="none" font-family="sans-serif" dy="1.5625" font-size="25" fill="#604A0E"/><text text-anchor="middle" pointer-events="none" y="5" font-size="10px" fill="#604A0E" font-family="sans-serif"> Child 0</text></g><g class="node" transform="translate(155.87637203632153,-301.1807722381195)"><circle class="outline" cx="0" cy="0" r="25" fill="#D9C8AE" stroke="#c0a378" stroke-width="2px"/><text text-anchor="middle" pointer-events="none" font-family="sans-serif" dy="1.5625" font-size="25" fill="#604A0E"/><text text-anchor="middle" pointer-events="none" y="5" font-size="10px" fill="#604A0E" font-family="sans-serif"> Child 1</text></g><g class="node" transform="translate(170.22753318020867,-415.5565374835186)"><circle class="outline" cx="0" cy="0" r="25" fill="#D9C8AE" stroke="#c0a378" stroke-width="2px"/><text text-anchor="middle" pointer-events="none" font-family="sans-serif" dy="1.5625" font-size="25" fill="#604A0E"/><text text-anchor="middle" pointer-events="none" y="5" font-size="10px" fill="#604A0E" font-family="sans-serif"> Child 2</text></g><g class="node" transform="translate(154.18217959813782,-524.3031529750518)"><circle class="outline" cx="0" cy="0" r="25" fill="#D9C8AE" stroke="#c0a378" stroke-width="2px"/><text text-anchor="middle" pointer-events="none" font-family="sans-serif" dy="1.5625" font-size="25" fill="#604A0E"/><text text-anchor="middle" pointer-events="none" y="5" font-size="10px" fill="#604A0E" font-family="sans-serif"> Child 3</text></g><g class="node" transform="translate(56.15728277417746,-568.5363391498188)"><circle class="outline" cx="0" cy="0" r="25" fill="#D9C8AE" stroke="#c0a378" stroke-width="2px"/><text text-anchor="middle" pointer-events="none" font-family="sans-serif" dy="1.5625" font-size="25" fill="#604A0E"/><text text-anchor="middle" pointer-events="none" y="5" font-size="10px" fill="#604A0E" font-family="sans-serif"> Child 4</text></g><g class="node" transform="translate(-49.85175150927975,-553.7628781993963)"><circle class="outline" cx="0" cy="0" r="25" fill="#D9C8AE" stroke="#c0a378" stroke-width="2px"/><text text-anchor="middle" pointer-events="none" font-family="sans-serif" dy="1.5625" font-size="25" fill="#604A0E"/><text text-anchor="middle" pointer-events="none" y="5" font-size="10px" fill="#604A0E" font-family="sans-serif"> Child 5</text></g><g class="node" transform="translate(26.417590560492624,2.771889816936071)"><circle class="outline" cx="0" cy="0" r="25" fill="#D9C8AE" stroke="#c0a378" stroke-width="2px"/><text text-anchor="middle" pointer-events="none" font-family="sans-serif" dy="1.5625" font-size="25" fill="#604A0E"/><text text-anchor="middle" pointer-events="none" y="5" font-size="10px" fill="#604A0E" font-family="sans-serif"> Element 9</text></g><g class="node" transform="translate(-49.80488617781945,-122.14469812491046)"><circle class="outline" cx="0" cy="0" r="25" fill="#D9C8AE" stroke="#c0a378" stroke-width="2px"/><text text-anchor="middle" pointer-events="none" font-family="sans-serif" dy="1.5625" font-size="25" fill="#604A0E"/><text text-anchor="middle" pointer-events="none" y="5" font-size="10px" fill="#604A0E" font-family="sans-serif"> Child 0</text></g><g class="node" transform="translate(-111.19994436490421,-229.76257025699687)"><circle class="outline" cx="0" cy="0" r="25" fill="#D9C8AE" stroke="#c0a378" stroke-width="2px"/><text text-anchor="middle" pointer-events="none" font-family="sans-serif" dy="1.5625" font-size="25" fill="#604A0E"/><text text-anchor="middle" pointer-events="none" y="5" font-size="10px" fill="#604A0E" font-family="sans-serif"> Child 1</text></g><g class="node" transform="translate(-160.99057886923327,-330.59603218559533)"><circle class="outline" cx="0" cy="0" r="25" fill="#D9C8AE" stroke="#c0a378" stroke-width="2px"/><text text-anchor="middle" pointer-events="none" font-family="sans-serif" dy="1.5625" font-size="25" fill="#604A0E"/><text text-anchor="middle" pointer-events="none" y="5" font-size="10px" fill="#604A0E" font-family="sans-serif"> Child 2</text></g><g class="node" transform="translate(-217.939056887044,-423.6997570537486)"><circle class="outline" cx="0" cy="0" r="25" fill="#D9C8AE" stroke="#c0a378" stroke-width="2px"/><text text-anchor="middle" pointer-events="none" font-family="sans-serif" dy="1.5625" font-size="25" fill="#604A0E"/><text text-anchor="middle" pointer-events="none" y="5" font-size="10px" fill="#604A0E" font-family="sans-serif"> Child 3</text></g><g class="node" transform="translate(-324.74397312843786,-421.44058453189916)"><circle class="outline" cx="0" cy="0" r="25" fill="#D9C8AE" stroke="#c0a378" stroke-width="2px"/><text text-anchor="middle" pointer-events="none" font-family="sans-serif" dy="1.5625" font-size="25" fill="#604A0E"/><text text-anchor="middle" pointer-events="none" y="5" font-size="10px" fill="#604A0E" font-family="sans-serif"> Child 4</text></g><g class="node" transform="translate(-404.0501027610616,-349.5187996712188)"><circle class="outline" cx="0" cy="0" r="25" fill="#D9C8AE" stroke="#c0a378" stroke-width="2px"/><text text-anchor="middle" pointer-events="none" font-family="sans-serif" dy="1.5625" font-size="25" fill="#604A0E"/><text text-anchor="middle" pointer-events="none" y="5" font-size="10px" fill="#604A0E" font-family="sans-serif"> Child 5</text></g><g class="node" transform="translate(-34.29940619269738,77.83268360974736)"><circle class="outline" cx="0" cy="0" r="25" fill="#D9C8AE" stroke="#c0a378" stroke-width="2px"/><text text-anchor="middle" pointer-events="none" font-family="sans-serif" dy="1.5625" font-size="25" fill="#604A0E"/><text text-anchor="middle" pointer-events="none" y="5" font-size="10px" fill="#604A0E" font-family="sans-serif"> Element 5</text></g><g class="node" transform="translate(-175.6350958103739,27.841082078110706)"><circle class="outline" cx="0" cy="0" r="25" fill="#D9C8AE" stroke="#c0a378" stroke-width="2px"/><text text-anchor="middle" pointer-events="none" font-family="sans-serif" dy="1.5625" font-size="25" fill="#604A0E"/><text text-anchor="middle" pointer-events="none" y="5" font-size="10px" fill="#604A0E" font-family="sans-serif"> Child 0</text></g><g class="node" transform="translate(-289.982308417662,-24.848558041574048)"><circle class="outline" cx="0" cy="0" r="25" fill="#D9C8AE" stroke="#c0a378" stroke-width="2px"/><text text-anchor="middle" pointer-events="none" font-family="sans-serif" dy="1.5625" font-size="25" fill="#604A0E"/><text text-anchor="middle" pointer-events="none" y="5" font-size="10px" fill="#604A0E" font-family="sans-serif"> Child 1</text></g><g class="node" transform="translate(-380.81521835566167,-95.16402148148956)"><circle class="outline" cx="0" cy="0" r="25" fill="#D9C8AE" stroke="#c0a378" stroke-width="2px"/><text text-anchor="middle" pointer-events="none" font-family="sans-serif" dy="1.5625" font-size="25" fill="#604A0E"/><text text-anchor="middle" pointer-events="none" y="5" font-size="10px" fill="#604A0E" font-family="sans-serif"> Child 2</text></g><g class="node" transform="translate(-486.7290063485942,-127.28893963960249)"><circle class="outline" cx="0" cy="0" r="25" fill="#D9C8AE" stroke="#c0a378" stroke-width="2px"/><text text-anchor="middle" pointer-events="none" font-family="sans-serif" dy="1.5625" font-size="25" fill="#604A0E"/><text text-anchor="middle" pointer-events="none" y="5" font-size="10px" fill="#604A0E" font-family="sans-serif"> Child 3</text></g><g class="node" transform="translate(-558.0208655403916,-45.2666636688131)"><circle class="outline" cx="0" cy="0" r="25" fill="#D9C8AE" stroke="#c0a378" stroke-width="2px"/><text text-anchor="middle" pointer-events="none" font-family="sans-serif" dy="1.5625" font-size="25" fill="#604A0E"/><text text-anchor="middle" pointer-events="none" y="5" font-size="10px" fill="#604A0E" font-family="sans-serif"> Child 4</text></g><g class="node" transform="translate(-567.3274905270556,62.398651012233934)"><circle class="outline" cx="0" cy="0" r="25" fill="#D9C8AE" stroke="#c0a378" stroke-width="2px"/><text text-anchor="middle" pointer-events="none" font-family="sans-serif" dy="1.5625" font-size="25" fill="#604A0E"/><text text-anchor="middle" pointer-events="none" y="5" font-size="10px" fill="#604A0E" font-family="sans-serif"> Child 5</text></g><g class="node" transform="translate(-30.451748014460783,176.91986526860882)"><circle class="outline" cx="0" cy="0" r="25" fill="#D9C8AE" stroke="#c0a378" stroke-width="2px"/><text text-anchor="middle" pointer-events="none" font-family="sans-serif" dy="1.5625" font-size="25" fill="#604A0E"/><text text-anchor="middle" pointer-events="none" y="5" font-size="10px" fill="#604A0E" font-family="sans-serif"> Element 2</text></g><g class="node" transform="translate(-169.9302901132211,230.202125215217)"><circle class="outline" cx="0" cy="0" r="25" fill="#D9C8AE" stroke="#c0a378" stroke-width="2px"/><text text-anchor="middle" pointer-events="none" font-family="sans-serif" dy="1.5625" font-size="25" fill="#604A0E"/><text text-anchor="middle" pointer-events="none" y="5" font-size="10px" fill="#604A0E" font-family="sans-serif"> Child 0</text></g><g class="node" transform="translate(-290.6036811724378,261.98657395476135)"><circle class="outline" cx="0" cy="0" r="25" fill="#D9C8AE" stroke="#c0a378" stroke-width="2px"/><text text-anchor="middle" pointer-events="none" font-family="sans-serif" dy="1.5625" font-size="25" fill="#604A0E"/><text text-anchor="middle" pointer-events="none" y="5" font-size="10px" fill="#604A0E" font-family="sans-serif"> Child 1</text></g><g class="node" transform="translate(-403.77544831042223,266.25776740434594)"><circle class="outline" cx="0" cy="0" r="25" fill="#D9C8AE" stroke="#c0a378" stroke-width="2px"/><text text-anchor="middle" pointer-events="none" font-family="sans-serif" dy="1.5625" font-size="25" fill="#604A0E"/><text text-anchor="middle" pointer-events="none" y="5" font-size="10px" fill="#604A0E" font-family="sans-serif"> Child 2</text></g><g class="node" transform="translate(-507.66555809042444,300.3088117372647)"><circle class="outline" cx="0" cy="0" r="25" fill="#D9C8AE" stroke="#c0a378" stroke-width="2px"/><text text-anchor="middle" pointer-events="none" font-family="sans-serif" dy="1.5625" font-size="25" fill="#604A0E"/><text text-anchor="middle" pointer-events="none" y="5" font-size="10px" fill="#604A0E" font-family="sans-serif"> Child 3</text></g><g class="node" transform="translate(-506.3989654734523,409.82069635228976)"><circle class="outline" cx="0" cy="0" r="25" fill="#D9C8AE" stroke="#c0a378" stroke-width="2px"/><text text-anchor="middle" pointer-events="none" font-family="sans-serif" dy="1.5625" font-size="25" fill="#604A0E"/><text text-anchor="middle" pointer-events="none" y="5" font-size="10px" fill="#604A0E" font-family="sans-serif"> Child 4</text></g><g class="node" transform="translate(-444.8305824777319,501.0636699599175)"><circle class="outline" cx="0" cy="0" r="25" fill="#D9C8AE" stroke="#c0a378" stroke-width="2px"/><text text-anchor="middle" pointer-events="none" font-family="sans-serif" dy="1.5625" font-size="25" fill="#604A0E"/><text text-anchor="middle" pointer-events="none" y="5" font-size="10px" fill="#604A0E" font-family="sans-serif"> Child 5</text></g><g class="node" transform="translate(36.524943080048985,253.12740233502984)"><circle class="outline" cx="0" cy="0" r="25" fill="#D9C8AE" stroke="#c0a378" stroke-width="2px"/><text text-anchor="middle" pointer-events="none" font-family="sans-serif" dy="1.5625" font-size="25" fill="#604A0E"/><text text-anchor="middle" pointer-events="none" y="5" font-size="10px" fill="#604A0E" font-family="sans-serif"> Element 7</text></g><g class="node" transform="translate(-35.51411400198445,382.5763578621257)"><circle class="outline" cx="0" cy="0" r="25" fill="#D9C8AE" stroke="#c0a378" stroke-width="2px"/><text text-anchor="middle" pointer-events="none" font-family="sans-serif" dy="1.5625" font-size="25" fill="#604A0E"/><text text-anchor="middle" pointer-events="none" y="5" font-size="10px" fill="#604A0E" font-family="sans-serif"> Child 0</text></g><g class="node" transform="translate(-107.70073540918486,485.1232486659664)"><circle class="outline" cx="0" cy="0" r="25" fill="#D9C8AE" stroke="#c0a378" stroke-width="2px"/><text text-anchor="middle" pointer-events="none" font-family="sans-serif" dy="1.5625" font-size="25" fill="#604A0E"/><text text-anchor="middle" pointer-events="none" y="5" font-size="10px" fill="#604A0E" font-family="sans-serif"> Child 1</text></g><g class="node" transform="translate(-189.21484470086895,565.4993729451563)"><circle class="outline" cx="0" cy="0" r="25" fill="#D9C8AE" stroke="#c0a378" stroke-width="2px"/><text text-anchor="middle" pointer-events="none" font-family="sans-serif" dy="1.5625" font-size="25" fill="#604A0E"/><text text-anchor="middle" pointer-events="none" y="5" font-size="10px" fill="#604A0E" font-family="sans-serif"> Child 2</text></g><g class="node" transform="translate(-216.77642889685347,671.5234282234936)"><circle class="outline" cx="0" cy="0" r="25" fill="#D9C8AE" stroke="#c0a378" stroke-width="2px"/><text text-anchor="middle" pointer-events="none" font-family="sans-serif" dy="1.5625" font-size="25" fill="#604A0E"/><text text-anchor="middle" pointer-events="none" y="5" font-size="10px" fill="#604A0E" font-family="sans-serif"> Child 3</text></g><g class="node" transform="translate(-131.80608617867207,740.24289917227)"><circle class="outline" cx="0" cy="0" r="25" fill="#D9C8AE" stroke="#c0a378" stroke-width="2px"/><text text-anchor="middle" pointer-events="none" font-family="sans-serif" dy="1.5625" font-size="25" fill="#604A0E"/><text text-anchor="middle" pointer-events="none" y="5" font-size="10px" fill="#604A0E" font-family="sans-serif"> Child 4</text></g><g class="node" transform="translate(-25.170166328407696,761.6904774608176)"><circle class="outline" cx="0" cy="0" r="25" fill="#D9C8AE" stroke="#c0a378" stroke-width="2px"/><text text-anchor="middle" pointer-events="none" font-family="sans-serif" dy="1.5625" font-size="25" fill="#604A0E"/><text text-anchor="middle" pointer-events="none" y="5" font-size="10px" fill="#604A0E" font-family="sans-serif"> Child 5</text></g></g></svg>