<svg xmlns="http://www.w3.org/2000/svg" width="363.135009765625" height="360.1470947265625" viewBox="-100.0284423828125 -91.03395080566406 363.135009765625 360.1470947265625"><title>Neo4j Graph Visualization</title><desc>Created using Neo4j (http://www.neo4j.com/)</desc><g class="layer relationships"><g class="relationship" transform="translate(81.56548135418991 82.36158331593762) rotate(422.96417515716547)"><path class="outline" fill="#A5ABB6" stroke="none" d="M 24.018736134675446,6.953439040707552 L 24.277555179777966,5.987513214418485 A 143.02403584996932 143.02403584996932 0 0 0 30.675726279926614,7.544959732371353 L 30.461642170893583,8.521774962729467 A 144.02403584996932 144.02403584996932 0 0 1 24.018736134675446,6.953439040707552 Z M 88.27074967796389,9.312082702062781 L 88.08344864898224,8.329780139436366 A 143.02403584996932 143.02403584996932 0 0 0 94.52180432599917,6.947821652619617 L 93.82485353944023,4.029901228565036 L 101.44644377988635,5.807923221324518 L 95.4510720414111,10.838382218025727 L 94.75412125485215,7.920461793971145 A 144.02403584996932 144.02403584996932 0 0 1 88.27074967796389,9.312082702062781"/><text text-anchor="middle" pointer-events="none" font-size="8px" fill="#000000" x="59.332967214784276" y="14.347528904436473" font-family="sans-serif">PROVENIENZ</text></g><g class="relationship" transform="translate(81.56548135418991 82.36158331593762) rotate(406.99439394653433)"><path class="outline" fill="#A5ABB6" stroke="none" d="M 25 0.5 L 52.43863845809159 0.5 L 52.43863845809159 -0.5 L 25 -0.5 Z M 110.44645095809159 0.5 L 137.88508941618318 0.5 L 137.88508941618318 3.5 L 144.88508941618318 0 L 137.88508941618318 -3.5 L 137.88508941618318 -0.5 L 110.44645095809159 -0.5 Z"/><text text-anchor="middle" pointer-events="none" font-size="8px" fill="#000000" x="81.44254470809159" y="3" font-family="sans-serif">PROVENIENZ</text></g><g class="relationship" transform="translate(81.56548135418991 82.36158331593762) rotate(372.3480190265318)"><path class="outline" fill="#A5ABB6" stroke="none" d="M 25 0.5 L 45.36758195055013 0.5 L 45.36758195055013 -0.5 L 25 -0.5 Z M 103.37539445055013 0.5 L 123.74297640110026 0.5 L 123.74297640110026 3.5 L 130.74297640110026 0 L 123.74297640110026 -3.5 L 123.74297640110026 -0.5 L 103.37539445055013 -0.5 Z"/><text text-anchor="middle" pointer-events="none" font-size="8px" fill="#000000" x="74.37148820055013" y="3" font-family="sans-serif">PROVENIENZ</text></g><g class="relationship" transform="translate(81.56548135418991 82.36158331593762) rotate(392.9247557846968)"><path class="outline" fill="#A5ABB6" stroke="none" d="M 25 0.5 L 28.14226134108919 0.5 L 28.14226134108919 -0.5 L 25 -0.5 Z M 86.15007384108918 0.5 L 89.29233518217838 0.5 L 89.29233518217838 3.5 L 96.29233518217838 0 L 89.29233518217838 -3.5 L 89.29233518217838 -0.5 L 86.15007384108918 -0.5 Z"/><text text-anchor="middle" pointer-events="none" font-size="8px" fill="#000000" x="57.14616759108919" y="3" font-family="sans-serif">PROVENIENZ</text></g><g class="relationship" transform="translate(81.56548135418991 82.36158331593762) rotate(350.0716848768732)"><path class="outline" fill="#A5ABB6" stroke="none" d="M 25 0.5 L 44.92622038391423 0.5 L 44.92622038391423 -0.5 L 25 -0.5 Z M 102.93403288391423 0.5 L 122.86025326782845 0.5 L 122.86025326782845 3.5 L 129.86025326782845 0 L 122.86025326782845 -3.5 L 122.86025326782845 -0.5 L 102.93403288391423 -0.5 Z"/><text text-anchor="middle" pointer-events="none" font-size="8px" fill="#000000" x="73.93012663391423" y="3" font-family="sans-serif">PROVENIENZ</text></g><g class="relationship" transform="translate(81.56548135418991 82.36158331593762) rotate(330.42708392751)"><path class="outline" fill="#A5ABB6" stroke="none" d="M 25 0.5 L 25.523887195381157 0.5 L 25.523887195381157 -0.5 L 25 -0.5 Z M 83.53169969538115 0.5 L 84.05558689076231 0.5 L 84.05558689076231 3.5 L 91.05558689076231 0 L 84.05558689076231 -3.5 L 84.05558689076231 -0.5 L 83.53169969538115 -0.5 Z"/><text text-anchor="middle" pointer-events="none" font-size="8px" fill="#000000" x="54.52779344538116" y="3" font-family="sans-serif">PROVENIENZ</text></g><g class="relationship" transform="translate(81.56548135418991 82.36158331593762) rotate(422.96417515716547)"><path class="outline" fill="#A5ABB6" stroke="none" d="M 24.018736134675446,-6.953439040707552 L 24.277555179777966,-5.987513214418485 A 143.02403584996932 143.02403584996932 0 0 1 30.675726279926636,-7.544959732371382 L 30.4616421708936,-8.521774962729467 A 144.02403584996932 144.02403584996932 0 0 0 24.018736134675446,-6.953439040707552 Z M 88.27074967796388,-9.312082702062781 L 88.08344864898223,-8.329780139436366 A 143.02403584996932 143.02403584996932 0 0 1 94.52180432599917,-6.947821652619617 L 93.82485353944023,-4.029901228565036 L 101.44644377988635,-5.807923221324518 L 95.4510720414111,-10.838382218025727 L 94.75412125485215,-7.920461793971145 A 144.02403584996932 144.02403584996932 0 0 0 88.27074967796388,-9.312082702062781"/><text text-anchor="middle" pointer-events="none" font-size="8px" fill="#000000" x="59.33296721478428" y="-8.347528904436473" font-family="sans-serif">PROVENIENZ</text></g><g class="relationship" transform="translate(81.56548135418991 82.36158331593762) rotate(316.4037294803423)"><path class="outline" fill="#A5ABB6" stroke="none" d="M 25 0.5 L 50.27126763338613 0.5 L 50.27126763338613 -0.5 L 25 -0.5 Z M 108.27908013338613 0.5 L 133.55034776677226 0.5 L 133.55034776677226 3.5 L 140.55034776677226 0 L 133.55034776677226 -3.5 L 133.55034776677226 -0.5 L 108.27908013338613 -0.5 Z"/><text text-anchor="middle" pointer-events="none" font-size="8px" fill="#000000" x="79.27517388338613" y="3" font-family="sans-serif">PROVENIENZ</text></g><g class="relationship" transform="translate(81.56548135418991 82.36158331593762) rotate(296.4268867691412)"><path class="outline" fill="#A5ABB6" stroke="none" d="M 25 0.5 L 35.27880476293079 0.5 L 35.27880476293079 -0.5 L 25 -0.5 Z M 93.28661726293079 0.5 L 103.56542202586158 0.5 L 103.56542202586158 3.5 L 110.56542202586158 0 L 103.56542202586158 -3.5 L 103.56542202586158 -0.5 L 93.28661726293079 -0.5 Z"/><text text-anchor="middle" pointer-events="none" font-size="8px" fill="#000000" x="64.28271101293079" y="3" font-family="sans-serif">PROVENIENZ</text></g><g class="relationship" transform="translate(81.56548135418991 82.36158331593762) rotate(271.96090366418554)"><path class="outline" fill="#A5ABB6" stroke="none" d="M 25 0.5 L 39.73616219613146 0.5 L 39.73616219613146 -0.5 L 25 -0.5 Z M 97.74397469613146 0.5 L 112.48013689226292 0.5 L 112.48013689226292 3.5 L 119.48013689226292 0 L 112.48013689226292 -3.5 L 112.48013689226292 -0.5 L 97.74397469613146 -0.5 Z"/><text text-anchor="middle" pointer-events="none" font-size="8px" fill="#000000" x="68.74006844613146" y="3" font-family="sans-serif">PROVENIENZ</text></g><g class="relationship" transform="translate(81.56548135418991 82.36158331593762) rotate(249.133021398222)"><path class="outline" fill="#A5ABB6" stroke="none" d="M 25 0.5 L 44.74219912657958 0.5 L 44.74219912657958 -0.5 L 25 -0.5 Z M 102.75001162657958 0.5 L 122.49221075315916 0.5 L 122.49221075315916 3.5 L 129.49221075315916 0 L 122.49221075315916 -3.5 L 122.49221075315916 -0.5 L 102.75001162657958 -0.5 Z"/><text text-anchor="middle" pointer-events="none" font-size="8px" fill="#000000" x="73.74610537657958" y="3" transform="rotate(180 73.74610537657958 0)" font-family="sans-serif">PROVENIENZ</text></g><g class="relationship" transform="translate(81.56548135418991 82.36158331593762) rotate(227.30629081462945)"><path class="outline" fill="#A5ABB6" stroke="none" d="M 25 0.5 L 45.55423191672073 0.5 L 45.55423191672073 -0.5 L 25 -0.5 Z M 73.63626316672074 0.5 L 94.19049508344146 0.5 L 94.19049508344146 3.5 L 101.19049508344146 0 L 94.19049508344146 -3.5 L 94.19049508344146 -0.5 L 73.63626316672074 -0.5 Z"/><text text-anchor="middle" pointer-events="none" font-size="8px" fill="#000000" x="59.59524754172073" y="3" transform="rotate(180 59.59524754172073 0)" font-family="sans-serif">ORTE</text></g><g class="relationship" transform="translate(81.56548135418991 82.36158331593762) rotate(185.80405013878237)"><path class="outline" fill="#A5ABB6" stroke="none" d="M 25 0.5 L 35.58380249633326 0.5 L 35.58380249633326 -0.5 L 25 -0.5 Z M 82.77911499633326 0.5 L 93.36291749266653 0.5 L 93.36291749266653 3.5 L 100.36291749266653 0 L 93.36291749266653 -3.5 L 93.36291749266653 -0.5 L 82.77911499633326 -0.5 Z"/><text text-anchor="middle" pointer-events="none" font-size="8px" fill="#000000" x="59.18145874633326" y="3" transform="rotate(180 59.18145874633326 0)" font-family="sans-serif">ENTHAELT</text></g><g class="relationship" transform="translate(81.56548135418991 82.36158331593762) rotate(206.47954408669455)"><path class="outline" fill="#A5ABB6" stroke="none" d="M 25 0.5 L 45.94401780902258 0.5 L 45.94401780902258 -0.5 L 25 -0.5 Z M 104.83854905902258 0.5 L 125.78256686804517 0.5 L 125.78256686804517 3.5 L 132.78256686804517 0 L 125.78256686804517 -3.5 L 125.78256686804517 -0.5 L 104.83854905902258 -0.5 Z"/><text text-anchor="middle" pointer-events="none" font-size="8px" fill="#000000" x="75.39128343402258" y="3" transform="rotate(180 75.39128343402258 0)" font-family="sans-serif">BUCHBINDER</text></g><g class="relationship" transform="translate(81.56548135418991 82.36158331593762) rotate(503.71317735560365)"><path class="outline" fill="#A5ABB6" stroke="none" d="M 25 0.5 L 47.74174054867899 0.5 L 47.74174054867899 -0.5 L 25 -0.5 Z M 75.82377179867899 0.5 L 98.56551234735798 0.5 L 98.56551234735798 3.5 L 105.56551234735798 0 L 98.56551234735798 -3.5 L 98.56551234735798 -0.5 L 75.82377179867899 -0.5 Z"/><text text-anchor="middle" pointer-events="none" font-size="8px" fill="#000000" x="61.78275617367899" y="3" transform="rotate(180 61.78275617367899 0)" font-family="sans-serif">ORTE</text></g><g class="relationship" transform="translate(81.56548135418991 82.36158331593762) rotate(525.1585239093337)"><path class="outline" fill="#A5ABB6" stroke="none" d="M 25 0.5 L 51.83255731205335 0.5 L 51.83255731205335 -0.5 L 25 -0.5 Z M 99.02786981205335 0.5 L 125.8604271241067 0.5 L 125.8604271241067 3.5 L 132.8604271241067 0 L 125.8604271241067 -3.5 L 125.8604271241067 -0.5 L 99.02786981205335 -0.5 Z"/><text text-anchor="middle" pointer-events="none" font-size="8px" fill="#000000" x="75.43021356205335" y="3" transform="rotate(180 75.43021356205335 0)" font-family="sans-serif">ENTHAELT</text></g><g class="relationship" transform="translate(81.56548135418991 82.36158331593762) rotate(483.7190357104587)"><path class="outline" fill="#A5ABB6" stroke="none" d="M 25 0.5 L 54.27880860037976 0.5 L 54.27880860037976 -0.5 L 25 -0.5 Z M 101.47412110037976 0.5 L 130.75292970075952 0.5 L 130.75292970075952 3.5 L 137.75292970075952 0 L 130.75292970075952 -3.5 L 130.75292970075952 -0.5 L 101.47412110037976 -0.5 Z"/><text text-anchor="middle" pointer-events="none" font-size="8px" fill="#000000" x="77.87646485037976" y="3" transform="rotate(180 77.87646485037976 0)" font-family="sans-serif">ENTHAELT</text></g><g class="relationship" transform="translate(81.56548135418991 82.36158331593762) rotate(465.46882057551835)"><path class="outline" fill="#A5ABB6" stroke="none" d="M 25 0.5 L 34.38984184021929 0.5 L 34.38984184021929 -0.5 L 25 -0.5 Z M 81.58515434021929 0.5 L 90.97499618043858 0.5 L 90.97499618043858 3.5 L 97.97499618043858 0 L 90.97499618043858 -3.5 L 90.97499618043858 -0.5 L 81.58515434021929 -0.5 Z"/><text text-anchor="middle" pointer-events="none" font-size="8px" fill="#000000" x="57.98749809021929" y="3" transform="rotate(180 57.98749809021929 0)" font-family="sans-serif">ENTHAELT</text></g><g class="relationship" transform="translate(81.56548135418991 82.36158331593762) rotate(445.43522267742657)"><path class="outline" fill="#A5ABB6" stroke="none" d="M 25 0.5 L 52.02911719515542 0.5 L 52.02911719515542 -0.5 L 25 -0.5 Z M 99.22442969515542 0.5 L 126.25354689031084 0.5 L 126.25354689031084 3.5 L 133.25354689031084 0 L 126.25354689031084 -3.5 L 126.25354689031084 -0.5 L 99.22442969515542 -0.5 Z"/><text text-anchor="middle" pointer-events="none" font-size="8px" fill="#000000" x="75.62677344515542" y="3" font-family="sans-serif">ENTHAELT</text></g></g><g class="layer nodes"><g class="node selected" transform="translate(81.56548135418991,82.36158331593762)"><circle class="outline" cx="0" cy="0" r="25" fill="#F79767" stroke="#f36924" stroke-width="2px"/><text text-anchor="middle" pointer-events="none" font-family="sans-serif" dy="1.5625" font-size="25" fill="#FFFFFF"/><text text-anchor="middle" pointer-events="none" y="5" font-size="10px" fill="#FFFFFF" font-family="sans-serif"> S 67</text></g><g class="node" transform="translate(138.7304902671042,194.38102319273403)"><circle class="outline" cx="0" cy="0" r="25" fill="#8DCC93" stroke="#5db665" stroke-width="2px"/><text text-anchor="middle" pointer-events="none" font-family="sans-serif" dy="1.5625" font-size="25" fill="#604A0E"/><text text-anchor="middle" pointer-events="none" font-family="sans-serif" dy="1.5625" font-size="25" fill="#604A0E"/><text text-anchor="middle" pointer-events="none" font-family="sans-serif" dy="1.5625" font-size="25" fill="#604A0E"/><text text-anchor="middle" pointer-events="none" y="-5" font-size="10px" fill="#604A0E" font-family="sans-serif"> Wacker,</text><text text-anchor="middle" pointer-events="none" y="5" font-size="10px" fill="#604A0E" font-family="sans-serif"> Werner</text><text text-anchor="middle" pointer-events="none" y="15" font-size="10px" fill="#604A0E" font-family="sans-serif"> de Hir…</text></g><g class="node" transform="translate(197.43898992612128,206.5963353669443)"><circle class="outline" cx="0" cy="0" r="25" fill="#8DCC93" stroke="#5db665" stroke-width="2px"/><text text-anchor="middle" pointer-events="none" font-family="sans-serif" dy="1.5625" font-size="25" fill="#604A0E"/><text text-anchor="middle" pointer-events="none" font-family="sans-serif" dy="1.5625" font-size="25" fill="#604A0E"/><text text-anchor="middle" pointer-events="none" y="0" font-size="10px" fill="#604A0E" font-family="sans-serif"> Billinger,</text><text text-anchor="middle" pointer-events="none" y="10" font-size="10px" fill="#604A0E" font-family="sans-serif"> Theode…</text></g><g class="node" transform="translate(233.70560761599071,115.66708855631775)"><circle class="outline" cx="0" cy="0" r="25" fill="#8DCC93" stroke="#5db665" stroke-width="2px"/><text text-anchor="middle" pointer-events="none" font-family="sans-serif" dy="1.5625" font-size="25" fill="#604A0E"/><text text-anchor="middle" pointer-events="none" font-family="sans-serif" dy="1.5625" font-size="25" fill="#604A0E"/><text text-anchor="middle" pointer-events="none" y="0" font-size="10px" fill="#604A0E" font-family="sans-serif"> Dinck,</text><text text-anchor="middle" pointer-events="none" y="10" font-size="10px" fill="#604A0E" font-family="sans-serif"> Johann…</text></g><g class="node" transform="translate(183.3764598635494,148.28847637872838)"><circle class="outline" cx="0" cy="0" r="25" fill="#8DCC93" stroke="#5db665" stroke-width="2px"/><text text-anchor="middle" pointer-events="none" font-family="sans-serif" dy="1.5625" font-size="25" fill="#604A0E"/><text text-anchor="middle" pointer-events="none" font-family="sans-serif" dy="1.5625" font-size="25" fill="#604A0E"/><text text-anchor="middle" pointer-events="none" font-family="sans-serif" dy="1.5625" font-size="25" fill="#604A0E"/><text text-anchor="middle" pointer-events="none" y="-5" font-size="10px" fill="#604A0E" font-family="sans-serif"> Bonner,</text><text text-anchor="middle" pointer-events="none" y="5" font-size="10px" fill="#604A0E" font-family="sans-serif"> Jacobus</text><text text-anchor="middle" pointer-events="none" y="15" font-size="10px" fill="#604A0E" font-family="sans-serif"> de Ker…</text></g><g class="node" transform="translate(234.10658461323192,55.66121143294219)"><circle class="outline" cx="0" cy="0" r="25" fill="#57C7E3" stroke="#23b3d7" stroke-width="2px"/><text text-anchor="middle" pointer-events="none" font-family="sans-serif" dy="1.5625" font-size="25" fill="#FFFFFF"/><text text-anchor="middle" pointer-events="none" y="5" font-size="10px" fill="#FFFFFF" font-family="sans-serif"> Karmelit…</text></g><g class="node" transform="translate(182.50231202594955,25.08457691284593)"><circle class="outline" cx="0" cy="0" r="25" fill="#57C7E3" stroke="#23b3d7" stroke-width="2px"/><text text-anchor="middle" pointer-events="none" font-family="sans-serif" dy="1.5625" font-size="25" fill="#FFFFFF"/><text text-anchor="middle" pointer-events="none" y="5" font-size="10px" fill="#FFFFFF" font-family="sans-serif"> Universit…</text></g><g class="node" transform="translate(201.45981591357452,-31.797368090693617)"><circle class="outline" cx="0" cy="0" r="25" fill="#57C7E3" stroke="#23b3d7" stroke-width="2px"/><text text-anchor="middle" pointer-events="none" font-family="sans-serif" dy="1.5625" font-size="25" fill="#FFFFFF"/><text text-anchor="middle" pointer-events="none" y="5" font-size="10px" fill="#FFFFFF" font-family="sans-serif"> Gymnas…</text></g><g class="node" transform="translate(141.89961183922586,-39.03766028823238)"><circle class="outline" cx="0" cy="0" r="25" fill="#8DCC93" stroke="#5db665" stroke-width="2px"/><text text-anchor="middle" pointer-events="none" font-family="sans-serif" dy="1.5625" font-size="25" fill="#604A0E"/><text text-anchor="middle" pointer-events="none" font-family="sans-serif" dy="1.5625" font-size="25" fill="#604A0E"/><text text-anchor="middle" pointer-events="none" font-family="sans-serif" dy="1.5625" font-size="25" fill="#604A0E"/><text text-anchor="middle" pointer-events="none" font-family="sans-serif" dy="1.5625" font-size="25" fill="#604A0E"/><text text-anchor="middle" pointer-events="none" y="-10" font-size="10px" fill="#604A0E" font-family="sans-serif"> Beke,</text><text text-anchor="middle" pointer-events="none" y="0" font-size="10px" fill="#604A0E" font-family="sans-serif"> Michael</text><text text-anchor="middle" pointer-events="none" y="10" font-size="10px" fill="#604A0E" font-family="sans-serif"> de</text><text text-anchor="middle" pointer-events="none" y="20" font-size="10px" fill="#604A0E" font-family="sans-serif"> Bop…</text></g><g class="node" transform="translate(86.50923687059657,-62.03394721669705)"><circle class="outline" cx="0" cy="0" r="25" fill="#8DCC93" stroke="#5db665" stroke-width="2px"/><text text-anchor="middle" pointer-events="none" font-family="sans-serif" dy="1.5625" font-size="25" fill="#604A0E"/><text text-anchor="middle" pointer-events="none" y="5" font-size="10px" fill="#604A0E" font-family="sans-serif"> Herbord…</text></g><g class="node" transform="translate(26.535428795740916,-61.9974707777107)"><circle class="outline" cx="0" cy="0" r="25" fill="#8DCC93" stroke="#5db665" stroke-width="2px"/><text text-anchor="middle" pointer-events="none" font-family="sans-serif" dy="1.5625" font-size="25" fill="#604A0E"/><text text-anchor="middle" pointer-events="none" y="5" font-size="10px" fill="#604A0E" font-family="sans-serif"> Bischofs…</text></g><g class="node" transform="translate(-4.00164027211902,-10.387048727842494)"><circle class="outline" cx="0" cy="0" r="25" fill="#F16667" stroke="#eb2728" stroke-width="2px"/><text text-anchor="middle" pointer-events="none" font-family="sans-serif" dy="1.5625" font-size="25" fill="#FFFFFF"/><text text-anchor="middle" pointer-events="none" y="5" font-size="10px" fill="#FFFFFF" font-family="sans-serif"> Trier</text></g><g class="node" transform="translate(-43.15477102096861,69.68405478116874)"><circle class="outline" cx="0" cy="0" r="25" fill="#D9C8AE" stroke="#c0a378" stroke-width="2px"/><text text-anchor="middle" pointer-events="none" font-family="sans-serif" dy="1.5625" font-size="25" fill="#604A0E"/><text text-anchor="middle" pointer-events="none" font-family="sans-serif" dy="1.5625" font-size="25" fill="#604A0E"/><text text-anchor="middle" pointer-events="none" font-family="sans-serif" dy="1.5625" font-size="25" fill="#604A0E"/><text text-anchor="middle" pointer-events="none" y="-5" font-size="10px" fill="#604A0E" font-family="sans-serif"> Faszikel</text><text text-anchor="middle" pointer-events="none" y="5" font-size="10px" fill="#604A0E" font-family="sans-serif"> &amp;</text><text text-anchor="middle" pointer-events="none" y="15" font-size="10px" fill="#604A0E" font-family="sans-serif"> Hands…</text></g><g class="node" transform="translate(-59.664685618205,12.009764971145673)"><circle class="outline" cx="0" cy="0" r="25" fill="#57C7E3" stroke="#23b3d7" stroke-width="2px"/><text text-anchor="middle" pointer-events="none" font-family="sans-serif" dy="1.5625" font-size="25" fill="#FFFFFF"/><text text-anchor="middle" pointer-events="none" y="5" font-size="10px" fill="#FFFFFF" font-family="sans-serif"> Buchbin…</text></g><g class="node" transform="translate(-23.67873223677057,159.6338844344392)"><circle class="outline" cx="0" cy="0" r="25" fill="#F16667" stroke="#eb2728" stroke-width="2px"/><text text-anchor="middle" pointer-events="none" font-family="sans-serif" dy="1.5625" font-size="25" fill="#FFFFFF"/><text text-anchor="middle" pointer-events="none" y="5" font-size="10px" fill="#FFFFFF" font-family="sans-serif"> Köln</text></g><g class="node" transform="translate(-71.02844086045697,122.79683223264027)"><circle class="outline" cx="0" cy="0" r="25" fill="#D9C8AE" stroke="#c0a378" stroke-width="2px"/><text text-anchor="middle" pointer-events="none" font-family="sans-serif" dy="1.5625" font-size="25" fill="#604A0E"/><text text-anchor="middle" pointer-events="none" font-family="sans-serif" dy="1.5625" font-size="25" fill="#604A0E"/><text text-anchor="middle" pointer-events="none" font-family="sans-serif" dy="1.5625" font-size="25" fill="#604A0E"/><text text-anchor="middle" pointer-events="none" y="-5" font-size="10px" fill="#604A0E" font-family="sans-serif"> Faszikel</text><text text-anchor="middle" pointer-events="none" y="5" font-size="10px" fill="#604A0E" font-family="sans-serif"> &amp;</text><text text-anchor="middle" pointer-events="none" y="15" font-size="10px" fill="#604A0E" font-family="sans-serif"> Hands…</text></g><g class="node" transform="translate(-8.782055473877415,217.73454485287598)"><circle class="outline" cx="0" cy="0" r="25" fill="#D9C8AE" stroke="#c0a378" stroke-width="2px"/><text text-anchor="middle" pointer-events="none" font-family="sans-serif" dy="1.5625" font-size="25" fill="#604A0E"/><text text-anchor="middle" pointer-events="none" font-family="sans-serif" dy="1.5625" font-size="25" fill="#604A0E"/><text text-anchor="middle" pointer-events="none" font-family="sans-serif" dy="1.5625" font-size="25" fill="#604A0E"/><text text-anchor="middle" pointer-events="none" y="-5" font-size="10px" fill="#604A0E" font-family="sans-serif"> Faszikel</text><text text-anchor="middle" pointer-events="none" y="5" font-size="10px" fill="#604A0E" font-family="sans-serif"> &amp;</text><text text-anchor="middle" pointer-events="none" y="15" font-size="10px" fill="#604A0E" font-family="sans-serif"> Hands…</text></g><g class="node" transform="translate(48.76633503203121,200.88190092484595)"><circle class="outline" cx="0" cy="0" r="25" fill="#D9C8AE" stroke="#c0a378" stroke-width="2px"/><text text-anchor="middle" pointer-events="none" font-family="sans-serif" dy="1.5625" font-size="25" fill="#604A0E"/><text text-anchor="middle" pointer-events="none" y="5" font-size="10px" fill="#604A0E" font-family="sans-serif"> Einband</text></g><g class="node" transform="translate(94.1602699301837,240.11314877279713)"><circle class="outline" cx="0" cy="0" r="25" fill="#D9C8AE" stroke="#c0a378" stroke-width="2px"/><text text-anchor="middle" pointer-events="none" font-family="sans-serif" dy="1.5625" font-size="25" fill="#604A0E"/><text text-anchor="middle" pointer-events="none" font-family="sans-serif" dy="1.5625" font-size="25" fill="#604A0E"/><text text-anchor="middle" pointer-events="none" font-family="sans-serif" dy="1.5625" font-size="25" fill="#604A0E"/><text text-anchor="middle" pointer-events="none" y="-5" font-size="10px" fill="#604A0E" font-family="sans-serif"> Faszikel</text><text text-anchor="middle" pointer-events="none" y="5" font-size="10px" fill="#604A0E" font-family="sans-serif"> &amp;</text><text text-anchor="middle" pointer-events="none" y="15" font-size="10px" fill="#604A0E" font-family="sans-serif"> Inkun…</text></g></g></svg>